<?xml version="1.0" encoding="UTF-8"?>
<!-- Generated by Pixelmator Pro 3.5.7 -->
<svg width="3918" height="1521" viewBox="0 0 3918 1521" xmlns="http://www.w3.org/2000/svg">
    <text id="electing-the-next-generation" xml:space="preserve"><tspan x="1904" y="402" font-family="Geist" font-size="252" font-weight="500" fill="#ffffff" letter-spacing="-10.08" xml:space="preserve">electing the</tspan><tspan x="1904" y="656.800051" font-family="Geist" font-size="252" font-weight="500" fill="#ffffff" letter-spacing="-10.08" xml:space="preserve">next generation</tspan></text>
    <text id="a-brighter-booming-Britain" opacity="0.5" xml:space="preserve"><tspan x="859.99" y="1259" font-family="Geist" font-size="135" font-weight="500" fill="#ffffff" letter-spacing="-5.4" xml:space="preserve">a brighter, booming Britain is possible</tspan><tspan x="257.62" y="1441.900027" font-family="Geist" font-size="135" font-weight="500" fill="#ffffff" letter-spacing="-5.4" xml:space="preserve">website &amp; electoral commission certification coming soon</tspan></text>
    <g id="Group-copy">
        <path id="youth" fill="#ffffff" fill-rule="evenodd" stroke="none" d="M 314.755859 462.75 L 314.755859 408.460938 L 344.570313 408.460938 C 359.700256 408.460938 367.264893 404.010132 371.714844 393.330078 L 376.609375 381.314453 L 356.140625 381.314453 L 271.589844 160.150391 L 343.234375 160.150391 L 397.970703 315.455078 L 450.480469 160.150391 L 522.125 160.150391 L 430.455078 416.025391 C 418.885132 448.510376 397.079437 462.75 360.144531 462.75 L 314.755859 462.75 Z M 642.720703 401.339844 C 567.07074 401.339844 517.230469 352.38916 517.230469 278.074219 C 517.230469 203.759399 567.07074 154.810547 642.720703 154.810547 C 718.815613 154.810547 768.654297 203.759399 768.654297 278.074219 C 768.654297 352.38916 718.815613 401.339844 642.720703 401.339844 Z M 875.900391 401.339844 C 826.060486 401.339844 794.910156 367.964478 794.910156 311.894531 L 794.910156 160.150391 L 872.339844 160.150391 L 872.339844 285.640625 C 872.339844 321.240601 878.124878 341.265625 903.044922 341.265625 C 927.519897 341.265625 939.089844 321.240601 939.089844 285.640625 L 939.089844 160.150391 L 1016.519531 160.150391 L 1016.519531 396 L 946.654297 396 L 944.875 359.955078 C 931.969971 390.215088 906.1604 401.339844 875.900391 401.339844 Z M 1162.925781 396 C 1108.190674 396 1079.710938 369.300781 1079.710938 313.675781 L 1079.710938 215.775391 L 1039.660156 215.775391 L 1039.660156 160.150391 L 1079.710938 160.150391 L 1079.710938 106.304688 L 1157.140625 106.304688 L 1157.140625 160.150391 L 1218.550781 160.150391 L 1218.550781 215.775391 L 1157.140625 215.775391 L 1157.140625 313.675781 C 1157.140625 330.585693 1166.040527 339.929688 1182.060547 339.929688 L 1219.439453 339.929688 L 1219.439453 396 L 1162.925781 396 Z M 1241.244141 396 L 1241.244141 80.050781 L 1318.675781 80.050781 L 1318.675781 189.519531 C 1332.470703 163.709473 1356.945435 154.810547 1384.980469 154.810547 C 1435.265381 154.810547 1464.189453 192.190796 1464.189453 244.255859 L 1464.189453 396 L 1386.759766 396 L 1386.759766 271.400391 C 1386.759766 236.245361 1380.974487 216.220703 1355.609375 216.220703 C 1330.244385 216.220703 1318.675781 236.245361 1318.675781 271.400391 L 1318.675781 396 L 1241.244141 396 Z M 642.720703 344.380859 C 672.535767 344.380859 689.445313 320.349243 689.445313 278.074219 C 689.445313 235.799316 672.535767 211.769531 642.720703 211.769531 C 612.905762 211.769531 596.439453 235.799316 596.439453 278.074219 C 596.439453 320.349243 612.905762 344.380859 642.720703 344.380859 Z"/>
        <path id="party" fill="#ffffff" fill-rule="evenodd" stroke="none" d="M 1466.350098 700.909973 L 1466.350098 773 L 1546.004883 773 L 1546.004883 700.909973 Z M 1208.25 537.150024 L 1292.800049 758.315002 L 1313.27002 758.315002 L 1308.375 770.330017 C 1303.925049 781.01001 1296.359985 785.460022 1281.22998 785.460022 L 1251.415039 785.460022 L 1251.415039 839.75 L 1296.805054 839.75 C 1333.73999 839.75 1355.545044 825.51001 1367.11499 793.025024 L 1458.784912 537.150024 L 1387.139893 537.150024 L 1334.630005 692.455017 L 1279.89502 537.150024 Z M 1064.959961 483.305054 L 1064.959961 537.150024 L 1024.910034 537.150024 L 1024.910034 592.775024 L 1064.959961 592.775024 L 1064.959961 690.674988 C 1064.959961 746.299988 1093.439941 773 1148.175049 773 L 1204.689941 773 L 1204.689941 716.929993 L 1167.310059 716.929993 C 1151.290039 716.929993 1142.390015 707.585022 1142.390015 690.674988 L 1142.390015 592.775024 L 1203.800049 592.775024 L 1203.800049 537.150024 L 1142.390015 537.150024 L 1142.390015 483.305054 Z M 859.814941 537.150024 L 859.814941 773 L 937.244995 773 L 937.244995 645.284973 C 937.244995 610.130005 952.819946 593.219971 992.425049 593.219971 L 1014.22998 593.219971 L 1014.22998 537.150024 L 992.869995 537.150024 C 963.5 537.150024 945.255005 553.61499 935.910034 585.210022 L 934.574951 537.150024 Z M 588.810059 611.465027 L 666.23999 615.025024 C 670.244995 590.549988 682.704956 578.534973 703.175049 578.534973 C 727.204956 578.534973 738.329956 593.664978 738.329956 626.150024 L 675.140015 639.054993 C 616.400024 650.625 585.25 668.424988 585.25 710.700012 C 585.25 752.530029 621.73999 778.340027 669.800049 778.340027 C 714.744995 778.340027 741.890015 762.765015 753.905029 737.400024 C 762.359985 782.789978 817.094971 774.335022 829.109985 773.890015 L 839.790039 773 L 839.790039 722.715027 L 831.780029 722.715027 C 823.77002 722.715027 816.650024 720.044983 816.650024 702.690002 L 816.650024 635.940002 C 816.650024 566.52002 778.824951 531.809998 703.175049 531.809998 C 637.314941 531.809998 598.155029 559.400024 588.810059 611.465027 Z M 664.459961 707.585022 C 664.459961 686.669983 681.369995 681.775024 706.290039 676.880005 L 739.665039 670.650024 L 739.665039 673.320007 C 739.665039 711.590027 721.86499 731.169983 696.055054 731.169983 C 675.584961 731.169983 664.459961 720.934998 664.459961 707.585022 Z M 321.36499 839.75 L 398.795044 839.75 L 398.795044 739.179993 C 413.035034 764.544983 436.619995 778.340027 466.880005 778.340027 C 532.295044 778.340027 567.449951 725.830017 567.449951 655.075012 C 567.449951 584.320007 532.295044 531.809998 466.880005 531.809998 C 435.285034 531.809998 411.255005 546.049988 397.905029 571.859985 L 396.569946 537.150024 L 321.36499 537.150024 Z M 394.344971 655.075012 C 394.344971 619.030029 409.920044 588.325012 441.515015 588.325012 C 472.219971 588.325012 488.23999 618.585022 488.23999 655.075012 C 488.23999 692.01001 473.109985 721.825012 441.515015 721.825012 C 410.36499 721.825012 394.344971 692.01001 394.344971 655.075012 Z"/>
    </g>
</svg>
