<?xml version="1.0" encoding="UTF-8"?>
<!-- Generated by Pixelmator Pro 3.5.7 -->
<svg width="3918" height="1521" viewBox="0 0 3918 1521" xmlns="http://www.w3.org/2000/svg">
    <path id="electing-the-next-generation" fill="#ffffff" fill-rule="evenodd" stroke="none" d="M 2521.132813 695.625 C 2491.900635 695.625 2469.97583 680.25238 2463.171875 657.068359 L 2490.388672 655.304688 C 2495.428711 666.644653 2506.012695 673.447266 2521.384766 673.447266 C 2543.056641 673.447266 2556.160156 663.872559 2556.160156 645.476563 L 2556.160156 625.820313 C 2548.348145 640.436279 2533.479248 647.996094 2519.367188 647.996094 C 2482.827148 647.996094 2459.644531 621.283691 2459.644531 583.484375 C 2459.644531 545.433044 2483.583252 518.216797 2519.367188 518.216797 C 2536.755371 518.216797 2551.120117 527.540283 2557.167969 541.904297 L 2557.167969 521.240234 L 2582.367188 521.240234 L 2582.367188 640.939453 C 2582.367188 676.21875 2557.420654 695.625 2521.132813 695.625 Z M 2116.419922 657.824219 C 2078.115967 657.824219 2053.167969 630.606812 2053.167969 588.019531 C 2053.167969 545.43219 2078.115967 518.216797 2116.419922 518.216797 C 2147.667969 518.216797 2174.884521 538.880493 2176.396484 586.507813 L 2176.648438 595.580078 L 2080.636719 595.580078 C 2082.652832 620.528076 2095.251953 635.144531 2116.419922 635.144531 C 2129.775879 635.144531 2141.620117 627.584412 2147.164063 614.732422 L 2174.632813 616.748047 C 2166.820801 641.948059 2143.384033 657.824219 2116.419922 657.824219 Z M 2667.292969 657.824219 C 2628.989014 657.824219 2604.039063 630.606812 2604.039063 588.019531 C 2604.039063 545.43219 2628.989014 518.216797 2667.292969 518.216797 C 2698.541016 518.216797 2725.755615 538.880493 2727.267578 586.507813 L 2727.519531 595.580078 L 2631.507813 595.580078 C 2633.523682 620.528076 2646.125 635.144531 2667.292969 635.144531 C 2680.648926 635.144531 2692.491211 627.584412 2698.035156 614.732422 L 2725.503906 616.748047 C 2717.691895 641.948059 2694.25708 657.824219 2667.292969 657.824219 Z M 2937.6875 657.824219 C 2899.383545 657.824219 2874.435547 630.606812 2874.435547 588.019531 C 2874.435547 545.43219 2899.383545 518.216797 2937.6875 518.216797 C 2968.935547 518.216797 2996.1521 538.880493 2997.664063 586.507813 L 2997.916016 595.580078 L 2901.904297 595.580078 C 2903.920166 620.528076 2916.519531 635.144531 2937.6875 635.144531 C 2951.043457 635.144531 2962.887695 627.584412 2968.431641 614.732422 L 2995.900391 616.748047 C 2988.088379 641.948059 2964.651611 657.824219 2937.6875 657.824219 Z M 3143.068359 657.824219 C 3116.356201 657.824219 3094.935547 643.711487 3094.935547 619.771484 C 3094.935547 592.807495 3114.843994 585.247192 3145.335938 579.451172 L 3183.640625 571.892578 C 3183.388672 550.472595 3173.560303 540.140625 3153.904297 540.140625 C 3138.280273 540.140625 3127.947998 547.952271 3124.167969 562.820313 L 3097.203125 561.056641 C 3102.495117 534.344666 3123.664307 518.216797 3153.904297 518.216797 C 3190.192139 518.216797 3209.847656 538.376709 3209.847656 574.664063 L 3209.847656 625.064453 C 3209.847656 631.364502 3212.620117 633.632813 3217.912109 633.632813 L 3223.457031 633.632813 L 3223.457031 654.800781 L 3214.636719 654.800781 C 3202.540771 655.052795 3186.664307 652.532654 3185.65625 634.388672 C 3179.860352 646.988647 3164.992188 657.824219 3143.068359 657.824219 Z M 3435.388672 657.824219 C 3397.084717 657.824219 3372.136719 630.606812 3372.136719 588.019531 C 3372.136719 545.43219 3397.084717 518.216797 3435.388672 518.216797 C 3473.692627 518.216797 3498.640625 545.43219 3498.640625 588.019531 C 3498.640625 630.606812 3473.692627 657.824219 3435.388672 657.824219 Z M 1926.160156 654.800781 L 1926.160156 521.240234 L 1949.847656 521.240234 L 1950.603516 543.919922 C 1957.659546 526.027954 1973.031738 518.216797 1991.427734 518.216797 C 2021.415771 518.216797 2036.535156 539.887207 2036.535156 568.867188 L 2036.535156 654.800781 L 2010.328125 654.800781 L 2010.328125 576.679688 C 2010.328125 553.243713 2003.272949 540.392578 1984.625 540.392578 C 1964.716919 540.392578 1952.367188 553.243713 1952.367188 576.679688 L 1952.367188 654.800781 L 1926.160156 654.800781 Z M 2176.144531 654.800781 L 2224.779297 586.507813 L 2178.412109 521.240234 L 2208.904297 521.240234 L 2240.65625 567.607422 L 2271.904297 521.240234 L 2302.900391 521.240234 L 2256.53125 586.507813 L 2304.916016 654.800781 L 2274.171875 654.800781 L 2240.65625 605.408203 L 2206.888672 654.800781 L 2176.144531 654.800781 Z M 2375.728516 654.800781 C 2350.024414 654.800781 2336.164063 641.444031 2336.164063 616.748047 L 2336.164063 542.912109 L 2316.003906 542.912109 L 2316.003906 521.240234 L 2336.164063 521.240234 L 2336.164063 491 L 2362.371094 491 L 2362.371094 521.240234 L 2397.904297 521.240234 L 2397.904297 542.912109 L 2362.371094 542.912109 L 2362.371094 616.748047 C 2362.371094 627.584045 2367.664063 633.128906 2377.996094 633.128906 L 2397.652344 633.128906 L 2397.652344 654.800781 L 2375.728516 654.800781 Z M 2747.427734 654.800781 L 2747.427734 521.240234 L 2771.115234 521.240234 L 2771.871094 543.919922 C 2778.927002 526.027954 2794.299316 518.216797 2812.695313 518.216797 C 2842.68335 518.216797 2857.804688 539.887207 2857.804688 568.867188 L 2857.804688 654.800781 L 2831.595703 654.800781 L 2831.595703 576.679688 C 2831.595703 553.243713 2824.540527 540.392578 2805.892578 540.392578 C 2785.984375 540.392578 2773.636719 553.243713 2773.636719 576.679688 L 2773.636719 654.800781 L 2747.427734 654.800781 Z M 3017.824219 654.800781 L 3017.824219 521.240234 L 3041.763672 521.240234 L 3042.519531 546.439453 C 3046.803467 529.303467 3056.883545 521.240234 3074.271484 521.240234 L 3087.125 521.240234 L 3087.125 542.912109 L 3074.019531 542.912109 C 3053.355469 542.912109 3044.03125 554.251709 3044.03125 576.679688 L 3044.03125 654.800781 L 3017.824219 654.800781 Z M 3283.179688 654.800781 C 3257.47583 654.800781 3243.615234 641.444031 3243.615234 616.748047 L 3243.615234 542.912109 L 3223.457031 542.912109 L 3223.457031 521.240234 L 3243.615234 521.240234 L 3243.615234 491 L 3269.824219 491 L 3269.824219 521.240234 L 3305.355469 521.240234 L 3305.355469 542.912109 L 3269.824219 542.912109 L 3269.824219 616.748047 C 3269.824219 627.584045 3275.115234 633.128906 3285.447266 633.128906 L 3305.103516 633.128906 L 3305.103516 654.800781 L 3283.179688 654.800781 Z M 3324.507813 654.800781 L 3324.507813 521.240234 L 3350.716797 521.240234 L 3350.716797 654.800781 L 3324.507813 654.800781 Z M 3518.548828 654.800781 L 3518.548828 521.240234 L 3542.236328 521.240234 L 3542.992188 543.919922 C 3550.04834 526.027954 3565.42041 518.216797 3583.816406 518.216797 C 3613.804443 518.216797 3628.923828 539.887207 3628.923828 568.867188 L 3628.923828 654.800781 L 3602.716797 654.800781 L 3602.716797 576.679688 C 3602.716797 553.243713 3595.659668 540.392578 3577.011719 540.392578 C 3557.10376 540.392578 3544.755859 553.243713 3544.755859 576.679688 L 3544.755859 654.800781 L 3518.548828 654.800781 Z M 3148.107422 637.160156 C 3168.519531 637.160156 3184.144531 622.796509 3184.144531 593.564453 L 3184.144531 592.304688 L 3155.416016 597.34375 C 3136.768066 600.619751 3122.152344 602.131592 3122.152344 619.267578 C 3122.152344 629.095581 3130.467529 637.160156 3148.107422 637.160156 Z M 3435.388672 634.892578 C 3458.320801 634.892578 3471.423828 617.251526 3471.423828 588.019531 C 3471.423828 558.787476 3458.320801 541.148438 3435.388672 541.148438 C 3412.456787 541.148438 3399.351563 558.787476 3399.351563 588.019531 C 3399.351563 617.251526 3412.456787 634.892578 3435.388672 634.892578 Z M 2521.888672 625.820313 C 2543.308838 625.820313 2556.664063 608.180359 2556.916016 583.484375 C 2557.167969 558.78833 2543.812744 541.148438 2521.888672 541.148438 C 2499.964844 541.148438 2486.859375 558.78833 2486.859375 583.484375 C 2486.859375 608.180359 2500.216797 625.820313 2521.888672 625.820313 Z M 2081.140625 575.419922 L 2148.927734 575.419922 C 2145.399658 549.715942 2131.540039 540.896484 2116.419922 540.896484 C 2096.763916 540.896484 2084.416748 553.747925 2081.140625 575.419922 Z M 2632.011719 575.419922 L 2699.800781 575.419922 C 2696.272705 549.715942 2682.413086 540.896484 2667.292969 540.896484 C 2647.636963 540.896484 2635.287842 553.747925 2632.011719 575.419922 Z M 2902.408203 575.419922 L 2970.195313 575.419922 C 2966.667236 549.715942 2952.807617 540.896484 2937.6875 540.896484 C 2918.031494 540.896484 2905.684326 553.747925 2902.408203 575.419922 Z M 3324.255859 501.332031 L 3324.255859 475.880859 L 3351.472656 475.880859 L 3351.472656 501.332031 L 3324.255859 501.332031 Z M 2724.748047 440.824219 C 2695.516113 440.824219 2673.593018 425.45166 2666.789063 402.267578 L 2694.003906 400.503906 C 2699.043945 411.843872 2709.62793 418.648438 2725 418.648438 C 2746.672119 418.648438 2759.775391 409.071777 2759.775391 390.675781 L 2759.775391 371.019531 C 2751.963623 385.635498 2737.096436 393.195313 2722.984375 393.195313 C 2686.44458 393.195313 2663.259766 366.483643 2663.259766 328.683594 C 2663.259766 290.631592 2687.200439 263.416016 2722.984375 263.416016 C 2740.372559 263.416016 2754.735352 272.739502 2760.783203 287.103516 L 2760.783203 266.439453 L 2785.984375 266.439453 L 2785.984375 386.140625 C 2785.984375 421.420654 2761.035889 440.824219 2724.748047 440.824219 Z M 1980.591797 403.023438 C 1942.28772 403.023438 1917.339844 375.808716 1917.339844 333.220703 C 1917.339844 290.63269 1942.28772 263.416016 1980.591797 263.416016 C 2011.839722 263.416016 2039.056396 284.078979 2040.568359 331.707031 L 2040.820313 340.779297 L 1944.808594 340.779297 C 1946.824585 365.727295 1959.423706 380.34375 1980.591797 380.34375 C 1993.947754 380.34375 2005.79187 372.783691 2011.335938 359.931641 L 2038.804688 361.947266 C 2030.992676 387.147217 2007.555786 403.023438 1980.591797 403.023438 Z M 2181.183594 403.023438 C 2142.879395 403.023438 2117.931641 375.808716 2117.931641 333.220703 C 2117.931641 290.63269 2142.879395 263.416016 2181.183594 263.416016 C 2212.431396 263.416016 2239.648193 284.078979 2241.160156 331.707031 L 2241.412109 340.779297 L 2145.400391 340.779297 C 2147.416504 365.727295 2160.015625 380.34375 2181.183594 380.34375 C 2194.539551 380.34375 2206.383789 372.783691 2211.927734 359.931641 L 2239.396484 361.947266 C 2231.584473 387.147217 2208.147461 403.023438 2181.183594 403.023438 Z M 2317.263672 403.023438 C 2278.959717 403.023438 2254.011719 375.808716 2254.011719 333.220703 C 2254.011719 290.63269 2278.959717 263.416016 2317.263672 263.416016 C 2346.49585 263.416016 2371.948486 281.560913 2375.476563 311.548828 L 2348.259766 313.060547 C 2345.739746 296.176514 2332.383789 286.347656 2317.263672 286.347656 C 2294.331787 286.347656 2281.228516 303.98877 2281.228516 333.220703 C 2281.228516 362.452759 2294.331787 380.091797 2317.263672 380.091797 C 2333.139648 380.091797 2346.495605 369.759277 2349.267578 351.111328 L 2376.736328 352.625 C 2372.452148 383.872925 2347.503662 403.023438 2317.263672 403.023438 Z M 3152.896484 403.023438 C 3114.592529 403.023438 3089.644531 375.808716 3089.644531 333.220703 C 3089.644531 290.63269 3114.592529 263.416016 3152.896484 263.416016 C 3184.144531 263.416016 3211.359131 284.078979 3212.871094 331.707031 L 3213.125 340.779297 L 3117.111328 340.779297 C 3119.127197 365.727295 3131.728516 380.34375 3152.896484 380.34375 C 3166.252441 380.34375 3178.09668 372.783691 3183.640625 359.931641 L 3211.107422 361.947266 C 3203.29541 387.147217 3179.860596 403.023438 3152.896484 403.023438 Z M 2092.732422 400 C 2075.092529 400 2063.5 388.659668 2063.5 370.767578 L 2063.5 221.080078 L 2089.707031 221.080078 L 2089.707031 369.507813 C 2089.707031 375.555786 2092.479492 378.328125 2098.275391 378.328125 L 2109.363281 378.328125 L 2109.363281 400 L 2092.732422 400 Z M 2441.751953 400 C 2416.048096 400 2402.1875 386.643311 2402.1875 361.947266 L 2402.1875 288.111328 L 2382.027344 288.111328 L 2382.027344 266.439453 L 2402.1875 266.439453 L 2402.1875 236.199219 L 2428.396484 236.199219 L 2428.396484 266.439453 L 2463.927734 266.439453 L 2463.927734 288.111328 L 2428.396484 288.111328 L 2428.396484 361.947266 C 2428.396484 372.783325 2433.6875 378.328125 2444.019531 378.328125 L 2463.675781 378.328125 L 2463.675781 400 L 2441.751953 400 Z M 2483.080078 400 L 2483.080078 266.439453 L 2509.289063 266.439453 L 2509.289063 400 L 2483.080078 400 Z M 2536.251953 400 L 2536.251953 266.439453 L 2559.939453 266.439453 L 2560.695313 289.119141 C 2567.751221 271.227173 2583.123535 263.416016 2601.519531 263.416016 C 2631.507568 263.416016 2646.628906 285.088379 2646.628906 314.068359 L 2646.628906 400 L 2620.419922 400 L 2620.419922 321.880859 C 2620.419922 298.444824 2613.364746 285.591797 2594.716797 285.591797 C 2574.808838 285.591797 2562.460938 298.444824 2562.460938 321.880859 L 2562.460938 400 L 2536.251953 400 Z M 2921.308594 400 C 2895.604492 400 2881.744141 386.643311 2881.744141 361.947266 L 2881.744141 288.111328 L 2861.583984 288.111328 L 2861.583984 266.439453 L 2881.744141 266.439453 L 2881.744141 236.199219 L 2907.951172 236.199219 L 2907.951172 266.439453 L 2943.484375 266.439453 L 2943.484375 288.111328 L 2907.951172 288.111328 L 2907.951172 361.947266 C 2907.951172 372.783325 2913.244141 378.328125 2923.576172 378.328125 L 2943.232422 378.328125 L 2943.232422 400 L 2921.308594 400 Z M 2962.636719 400 L 2962.636719 221.080078 L 2988.84375 221.080078 L 2988.84375 284.332031 C 2996.655762 269.715942 3011.776123 263.416016 3028.15625 263.416016 C 3058.144287 263.416016 3073.011719 285.592407 3073.011719 314.068359 L 3073.011719 400 L 3046.804688 400 L 3046.804688 323.140625 C 3046.804688 299.70459 3039.747559 286.851563 3021.099609 286.851563 C 3001.191406 286.851563 2988.84375 299.70459 2988.84375 323.140625 L 2988.84375 400 L 2962.636719 400 Z M 2725.503906 371.019531 C 2746.924072 371.019531 2760.279297 353.379639 2760.53125 328.683594 C 2760.783203 303.987671 2747.427979 286.347656 2725.503906 286.347656 C 2703.580078 286.347656 2690.476563 303.987671 2690.476563 328.683594 C 2690.476563 353.379639 2703.832031 371.019531 2725.503906 371.019531 Z M 1945.3125 320.619141 L 2013.099609 320.619141 C 2009.571655 294.915161 1995.711792 286.095703 1980.591797 286.095703 C 1960.935791 286.095703 1948.588501 298.947144 1945.3125 320.619141 Z M 2145.904297 320.619141 L 2213.691406 320.619141 C 2210.163574 294.915161 2196.303467 286.095703 2181.183594 286.095703 C 2161.527588 286.095703 2149.180176 298.947144 2145.904297 320.619141 Z M 3117.615234 320.619141 L 3185.404297 320.619141 C 3181.876221 294.915161 3168.016602 286.095703 3152.896484 286.095703 C 3133.240479 286.095703 3120.891357 298.947144 3117.615234 320.619141 Z M 2482.828125 246.53125 L 2482.828125 221.080078 L 2510.042969 221.080078 L 2510.042969 246.53125 L 2482.828125 246.53125 Z"/>
    <path id="a-brighter-booming-Britain-is-possible-website--electoral-commission-certification-coming-soon" fill="#ffffff" fill-rule="evenodd" stroke="none" opacity="0.5" d="M 3301.574219 1462.769531 C 3285.914307 1462.769531 3274.17041 1454.534668 3270.525391 1442.115234 L 3285.105469 1441.169922 C 3287.80542 1447.244629 3293.476074 1450.890625 3301.710938 1450.890625 C 3313.321045 1450.890625 3320.339844 1445.759033 3320.339844 1435.904297 L 3320.339844 1425.375 C 3316.154785 1433.204712 3308.188965 1437.255859 3300.628906 1437.255859 C 3281.053955 1437.255859 3268.634766 1422.94458 3268.634766 1402.695313 C 3268.634766 1382.310791 3281.458984 1367.730469 3300.628906 1367.730469 C 3309.944092 1367.730469 3317.638916 1372.725464 3320.878906 1380.419922 L 3320.878906 1369.349609 L 3334.378906 1369.349609 L 3334.378906 1433.474609 C 3334.378906 1452.374146 3321.01416 1462.769531 3301.574219 1462.769531 Z M 402.449219 1442.519531 C 381.930206 1442.519531 368.564453 1427.939209 368.564453 1405.125 C 368.564453 1382.310547 381.930206 1367.730469 402.449219 1367.730469 C 419.188202 1367.730469 433.770081 1378.800415 434.580078 1404.314453 L 434.714844 1409.175781 L 383.279297 1409.175781 C 384.359283 1422.540283 391.109192 1430.369141 402.449219 1430.369141 C 409.604218 1430.369141 415.949921 1426.320313 418.919922 1419.435547 L 433.634766 1420.515625 C 429.449768 1434.015137 416.894196 1442.519531 402.449219 1442.519531 Z M 479.535156 1442.519531 C 468.735138 1442.519531 461.174744 1438.199951 457.259766 1430.910156 L 456.855469 1440.900391 L 443.759766 1440.900391 L 443.759766 1345.050781 L 457.800781 1345.050781 L 457.800781 1378.664063 C 461.985779 1371.509033 469.275146 1367.730469 479.535156 1367.730469 C 500.054138 1367.730469 509.775391 1385.145508 509.775391 1405.125 C 509.775391 1425.104248 500.054138 1442.519531 479.535156 1442.519531 Z M 548.789063 1442.519531 C 530.699097 1442.519531 517.605347 1433.204956 516.525391 1418.355469 L 530.970703 1417.410156 C 532.32074 1425.509888 538.664246 1430.505859 548.654297 1430.505859 C 554.999268 1430.505859 563.234375 1428.345215 563.234375 1421.730469 C 563.099365 1413.900757 554.054626 1412.954224 546.224609 1411.199219 C 531.374634 1407.959229 518.279297 1404.044922 518.279297 1390.275391 C 518.279297 1376.37085 529.484924 1367.730469 547.169922 1367.730469 C 562.424927 1367.730469 574.304626 1376.774658 576.599609 1390.949219 L 562.154297 1391.759766 C 560.66925 1384.199707 553.380066 1379.609375 545.955078 1379.609375 C 538.665039 1379.609375 532.724365 1383.389404 532.859375 1389.734375 C 532.859375 1396.214111 541.364258 1398.915649 548.654297 1400.265625 C 566.204285 1403.505615 577.814453 1408.22998 577.814453 1422.269531 C 577.814453 1436.309082 563.504089 1442.519531 548.789063 1442.519531 Z M 691.214844 1442.519531 C 670.694824 1442.519531 657.330078 1427.939209 657.330078 1405.125 C 657.330078 1382.310547 670.694824 1367.730469 691.214844 1367.730469 C 707.954834 1367.730469 722.535706 1378.800415 723.345703 1404.314453 L 723.480469 1409.175781 L 672.044922 1409.175781 C 673.124939 1422.540283 679.874817 1430.369141 691.214844 1430.369141 C 698.369812 1430.369141 704.715576 1426.320313 707.685547 1419.435547 L 722.400391 1420.515625 C 718.215393 1434.015137 705.65979 1442.519531 691.214844 1442.519531 Z M 793.679688 1442.519531 C 772.34967 1442.519531 758.039063 1432.934326 758.039063 1415.384766 C 758.039063 1404.180054 763.035278 1397.430298 775.320313 1389.060547 C 775.860291 1388.790527 776.53418 1388.385498 777.074219 1387.980469 C 770.594177 1380.015991 767.894531 1372.455078 767.894531 1365.705078 C 767.894531 1351.39563 780.045593 1341.945557 793.140625 1342.890625 C 807.315613 1343.970581 818.925232 1356.255371 814.740234 1370.294922 C 812.580261 1377.719971 806.235596 1385.009399 796.515625 1390.814453 L 816.494141 1416.195313 C 819.464172 1412.145508 820.545593 1404.179443 820.140625 1397.429688 L 834.720703 1398.644531 C 834.585754 1409.444336 830.93927 1420.244873 825.404297 1426.724609 L 837.419922 1440.900391 L 820.679688 1440.900391 L 816.224609 1435.5 C 810.824646 1439.954712 802.589722 1442.519531 793.679688 1442.519531 Z M 903.164063 1442.519531 C 882.644104 1442.519531 869.279297 1427.939209 869.279297 1405.125 C 869.279297 1382.310547 882.644104 1367.730469 903.164063 1367.730469 C 919.904114 1367.730469 934.484924 1378.800415 935.294922 1404.314453 L 935.429688 1409.175781 L 883.994141 1409.175781 C 885.074158 1422.540283 891.824097 1430.369141 903.164063 1430.369141 C 910.319092 1430.369141 916.664734 1426.320313 919.634766 1419.435547 L 934.349609 1420.515625 C 930.164612 1434.015137 917.60907 1442.519531 903.164063 1442.519531 Z M 1010.625 1442.519531 C 990.10498 1442.519531 976.740234 1427.939209 976.740234 1405.125 C 976.740234 1382.310547 990.10498 1367.730469 1010.625 1367.730469 C 1027.36499 1367.730469 1041.945801 1378.800415 1042.755859 1404.314453 L 1042.890625 1409.175781 L 991.455078 1409.175781 C 992.535034 1422.540283 999.284973 1430.369141 1010.625 1430.369141 C 1017.780029 1430.369141 1024.125732 1426.320313 1027.095703 1419.435547 L 1041.810547 1420.515625 C 1037.625488 1434.015137 1025.069946 1442.519531 1010.625 1442.519531 Z M 1083.525391 1442.519531 C 1063.005371 1442.519531 1049.640625 1427.939209 1049.640625 1405.125 C 1049.640625 1382.310547 1063.005371 1367.730469 1083.525391 1367.730469 C 1099.185425 1367.730469 1112.820923 1377.451172 1114.710938 1393.515625 L 1100.130859 1394.324219 C 1098.780884 1385.279785 1091.625366 1380.015625 1083.525391 1380.015625 C 1071.240356 1380.015625 1064.220703 1389.465454 1064.220703 1405.125 C 1064.220703 1420.784546 1071.240356 1430.234375 1083.525391 1430.234375 C 1092.030396 1430.234375 1099.184937 1424.700684 1100.669922 1414.710938 L 1115.384766 1415.519531 C 1113.089722 1432.259033 1099.725342 1442.519531 1083.525391 1442.519531 Z M 1198.949219 1442.519531 C 1178.429321 1442.519531 1165.064453 1427.939209 1165.064453 1405.125 C 1165.064453 1382.310547 1178.429321 1367.730469 1198.949219 1367.730469 C 1219.469238 1367.730469 1232.835938 1382.310547 1232.835938 1405.125 C 1232.835938 1427.939209 1219.469238 1442.519531 1198.949219 1442.519531 Z M 1310.595703 1442.519531 C 1296.285767 1442.519531 1284.810547 1434.959229 1284.810547 1422.134766 C 1284.810547 1407.690308 1295.475464 1403.640137 1311.810547 1400.535156 L 1332.330078 1396.484375 C 1332.195068 1385.009888 1326.93042 1379.474609 1316.400391 1379.474609 C 1308.030396 1379.474609 1302.495728 1383.660522 1300.470703 1391.625 L 1286.025391 1390.679688 C 1288.860352 1376.370239 1300.200317 1367.730469 1316.400391 1367.730469 C 1335.840332 1367.730469 1346.369141 1378.53125 1346.369141 1397.970703 L 1346.369141 1424.970703 C 1346.369141 1428.345703 1347.854492 1429.560547 1350.689453 1429.560547 L 1353.660156 1429.560547 L 1353.660156 1440.900391 L 1348.935547 1440.900391 C 1342.455444 1441.0354 1333.950073 1439.68457 1333.410156 1429.964844 C 1330.305176 1436.7146 1322.340698 1442.519531 1310.595703 1442.519531 Z M 1455.990234 1442.519531 C 1435.470215 1442.519531 1422.105469 1427.939209 1422.105469 1405.125 C 1422.105469 1382.310547 1435.470215 1367.730469 1455.990234 1367.730469 C 1471.650269 1367.730469 1485.285767 1377.451172 1487.175781 1393.515625 L 1472.595703 1394.324219 C 1471.245728 1385.279785 1464.09021 1380.015625 1455.990234 1380.015625 C 1443.7052 1380.015625 1436.685547 1389.465454 1436.685547 1405.125 C 1436.685547 1420.784546 1443.7052 1430.234375 1455.990234 1430.234375 C 1464.495239 1430.234375 1471.64978 1424.700684 1473.134766 1414.710938 L 1487.849609 1415.519531 C 1485.554688 1432.259033 1472.190186 1442.519531 1455.990234 1442.519531 Z M 1527.134766 1442.519531 C 1506.614746 1442.519531 1493.25 1427.939209 1493.25 1405.125 C 1493.25 1382.310547 1506.614746 1367.730469 1527.134766 1367.730469 C 1547.654785 1367.730469 1561.019531 1382.310547 1561.019531 1405.125 C 1561.019531 1427.939209 1547.654785 1442.519531 1527.134766 1442.519531 Z M 1853.025391 1442.519531 C 1834.935425 1442.519531 1821.839722 1433.204956 1820.759766 1418.355469 L 1835.205078 1417.410156 C 1836.555176 1425.509888 1842.900635 1430.505859 1852.890625 1430.505859 C 1859.235596 1430.505859 1867.470703 1428.345215 1867.470703 1421.730469 C 1867.335693 1413.900757 1858.291016 1412.954224 1850.460938 1411.199219 C 1835.610962 1407.959229 1822.515625 1404.044922 1822.515625 1390.275391 C 1822.515625 1376.37085 1833.719238 1367.730469 1851.404297 1367.730469 C 1866.659302 1367.730469 1878.541016 1376.774658 1880.835938 1390.949219 L 1866.390625 1391.759766 C 1864.90564 1384.199707 1857.614502 1379.609375 1850.189453 1379.609375 C 1842.899536 1379.609375 1836.960693 1383.389404 1837.095703 1389.734375 C 1837.095703 1396.214111 1845.600586 1398.915649 1852.890625 1400.265625 C 1870.440552 1403.505615 1882.050781 1408.22998 1882.050781 1422.269531 C 1882.050781 1436.309082 1867.740356 1442.519531 1853.025391 1442.519531 Z M 1921.064453 1442.519531 C 1902.974487 1442.519531 1889.880737 1433.204956 1888.800781 1418.355469 L 1903.244141 1417.410156 C 1904.594116 1425.509888 1910.939575 1430.505859 1920.929688 1430.505859 C 1927.274658 1430.505859 1935.509766 1428.345215 1935.509766 1421.730469 C 1935.374756 1413.900757 1926.329956 1412.954224 1918.5 1411.199219 C 1903.650024 1407.959229 1890.554688 1404.044922 1890.554688 1390.275391 C 1890.554688 1376.37085 1901.760376 1367.730469 1919.445313 1367.730469 C 1934.700317 1367.730469 1946.579956 1376.774658 1948.875 1390.949219 L 1934.429688 1391.759766 C 1932.94458 1384.199707 1925.655518 1379.609375 1918.230469 1379.609375 C 1910.94043 1379.609375 1904.999756 1383.389404 1905.134766 1389.734375 C 1905.134766 1396.214111 1913.639648 1398.915649 1920.929688 1400.265625 C 1938.479614 1403.505615 1950.089844 1408.22998 1950.089844 1422.269531 C 1950.089844 1436.309082 1935.779541 1442.519531 1921.064453 1442.519531 Z M 2020.154297 1442.519531 C 1999.634277 1442.519531 1986.269531 1427.939209 1986.269531 1405.125 C 1986.269531 1382.310547 1999.634277 1367.730469 2020.154297 1367.730469 C 2040.674316 1367.730469 2054.039063 1382.310547 2054.039063 1405.125 C 2054.039063 1427.939209 2040.674316 1442.519531 2020.154297 1442.519531 Z M 2196.060547 1442.519531 C 2175.540527 1442.519531 2162.175781 1427.939209 2162.175781 1405.125 C 2162.175781 1382.310547 2175.540527 1367.730469 2196.060547 1367.730469 C 2211.720459 1367.730469 2225.355957 1377.451172 2227.246094 1393.515625 L 2212.664063 1394.324219 C 2211.313965 1385.279785 2204.1604 1380.015625 2196.060547 1380.015625 C 2183.775391 1380.015625 2176.753906 1389.465454 2176.753906 1405.125 C 2176.753906 1420.784546 2183.775391 1430.234375 2196.060547 1430.234375 C 2204.56543 1430.234375 2211.719971 1424.700684 2213.205078 1414.710938 L 2227.919922 1415.519531 C 2225.625 1432.259033 2212.260498 1442.519531 2196.060547 1442.519531 Z M 2267.205078 1442.519531 C 2246.685059 1442.519531 2233.320313 1427.939209 2233.320313 1405.125 C 2233.320313 1382.310547 2246.685059 1367.730469 2267.205078 1367.730469 C 2283.945068 1367.730469 2298.525879 1378.800415 2299.335938 1404.314453 L 2299.470703 1409.175781 L 2248.035156 1409.175781 C 2249.115234 1422.540283 2255.86499 1430.369141 2267.205078 1430.369141 C 2274.360107 1430.369141 2280.705811 1426.320313 2283.675781 1419.435547 L 2298.390625 1420.515625 C 2294.205811 1434.015137 2281.649902 1442.519531 2267.205078 1442.519531 Z M 2548.275391 1442.519531 C 2527.755371 1442.519531 2514.390625 1427.939209 2514.390625 1405.125 C 2514.390625 1382.310547 2527.755371 1367.730469 2548.275391 1367.730469 C 2563.935547 1367.730469 2577.571045 1377.451172 2579.460938 1393.515625 L 2564.878906 1394.324219 C 2563.529053 1385.279785 2556.375488 1380.015625 2548.275391 1380.015625 C 2535.990479 1380.015625 2528.970703 1389.465454 2528.970703 1405.125 C 2528.970703 1420.784546 2535.990479 1430.234375 2548.275391 1430.234375 C 2556.780518 1430.234375 2563.935059 1424.700684 2565.419922 1414.710938 L 2580.134766 1415.519531 C 2577.839844 1432.259033 2564.475586 1442.519531 2548.275391 1442.519531 Z M 2612.128906 1442.519531 C 2597.819092 1442.519531 2586.345703 1434.959229 2586.345703 1422.134766 C 2586.345703 1407.690308 2597.010742 1403.640137 2613.345703 1400.535156 L 2633.865234 1396.484375 C 2633.730225 1385.009888 2628.465576 1379.474609 2617.935547 1379.474609 C 2609.56543 1379.474609 2604.029053 1383.660522 2602.003906 1391.625 L 2587.560547 1390.679688 C 2590.395508 1376.370239 2601.735596 1367.730469 2617.935547 1367.730469 C 2637.375488 1367.730469 2647.904297 1378.53125 2647.904297 1397.970703 L 2647.904297 1424.970703 C 2647.904297 1428.345703 2649.389404 1429.560547 2652.224609 1429.560547 L 2655.195313 1429.560547 L 2655.195313 1440.900391 L 2650.470703 1440.900391 C 2643.990723 1441.0354 2635.485352 1439.68457 2634.945313 1429.964844 C 2631.840332 1436.7146 2623.874023 1442.519531 2612.128906 1442.519531 Z M 2768.730469 1442.519531 C 2748.210449 1442.519531 2734.845703 1427.939209 2734.845703 1405.125 C 2734.845703 1382.310547 2748.210449 1367.730469 2768.730469 1367.730469 C 2789.250488 1367.730469 2802.615234 1382.310547 2802.615234 1405.125 C 2802.615234 1427.939209 2789.250488 1442.519531 2768.730469 1442.519531 Z M 2944.634766 1442.519531 C 2924.114746 1442.519531 2910.75 1427.939209 2910.75 1405.125 C 2910.75 1382.310547 2924.114746 1367.730469 2944.634766 1367.730469 C 2960.294678 1367.730469 2973.930176 1377.451172 2975.820313 1393.515625 L 2961.240234 1394.324219 C 2959.890137 1385.279785 2952.734863 1380.015625 2944.634766 1380.015625 C 2932.349854 1380.015625 2925.330078 1389.465454 2925.330078 1405.125 C 2925.330078 1420.784546 2932.349854 1430.234375 2944.634766 1430.234375 C 2953.139648 1430.234375 2960.294189 1424.700684 2961.779297 1414.710938 L 2976.496094 1415.519531 C 2974.200928 1432.259033 2960.834717 1442.519531 2944.634766 1442.519531 Z M 3015.779297 1442.519531 C 2995.259277 1442.519531 2981.894531 1427.939209 2981.894531 1405.125 C 2981.894531 1382.310547 2995.259277 1367.730469 3015.779297 1367.730469 C 3036.299316 1367.730469 3049.664063 1382.310547 3049.664063 1405.125 C 3049.664063 1427.939209 3036.299316 1442.519531 3015.779297 1442.519531 Z M 3405.794922 1442.519531 C 3387.705078 1442.519531 3374.609375 1433.204956 3373.529297 1418.355469 L 3387.974609 1417.410156 C 3389.324463 1425.509888 3395.670166 1430.505859 3405.660156 1430.505859 C 3412.005127 1430.505859 3420.240234 1428.345215 3420.240234 1421.730469 C 3420.105225 1413.900757 3411.060547 1412.954224 3403.230469 1411.199219 C 3388.380371 1407.959229 3375.285156 1404.044922 3375.285156 1390.275391 C 3375.285156 1376.37085 3386.490723 1367.730469 3404.175781 1367.730469 C 3419.430664 1367.730469 3431.310547 1376.774658 3433.605469 1390.949219 L 3419.160156 1391.759766 C 3417.675293 1384.199707 3410.385986 1379.609375 3402.960938 1379.609375 C 3395.670898 1379.609375 3389.730225 1383.389404 3389.865234 1389.734375 C 3389.865234 1396.214111 3398.370361 1398.915649 3405.660156 1400.265625 C 3423.210205 1403.505615 3434.820313 1408.22998 3434.820313 1422.269531 C 3434.820313 1436.309082 3420.51001 1442.519531 3405.794922 1442.519531 Z M 3475.455078 1442.519531 C 3454.935059 1442.519531 3441.570313 1427.939209 3441.570313 1405.125 C 3441.570313 1382.310547 3454.935059 1367.730469 3475.455078 1367.730469 C 3495.975098 1367.730469 3509.339844 1382.310547 3509.339844 1405.125 C 3509.339844 1427.939209 3495.975098 1442.519531 3475.455078 1442.519531 Z M 3549.974609 1442.519531 C 3529.45459 1442.519531 3516.089844 1427.939209 3516.089844 1405.125 C 3516.089844 1382.310547 3529.45459 1367.730469 3549.974609 1367.730469 C 3570.494629 1367.730469 3583.859375 1382.310547 3583.859375 1405.125 C 3583.859375 1427.939209 3570.494629 1442.519531 3549.974609 1442.519531 Z M 284.460938 1440.900391 L 262.589844 1369.349609 L 276.900391 1369.349609 L 292.830078 1425.105469 L 308.759766 1369.349609 L 322.259766 1369.349609 L 338.324219 1425.105469 L 354.119141 1369.349609 L 368.564453 1369.349609 L 346.560547 1440.900391 L 330.630859 1440.900391 L 315.509766 1389.464844 L 300.390625 1440.900391 L 284.460938 1440.900391 Z M 588.480469 1440.900391 L 588.480469 1369.349609 L 602.519531 1369.349609 L 602.519531 1440.900391 L 588.480469 1440.900391 Z M 642.480469 1440.900391 C 628.71051 1440.900391 621.285156 1433.745117 621.285156 1420.515625 L 621.285156 1380.960938 L 610.484375 1380.960938 L 610.484375 1369.349609 L 621.285156 1369.349609 L 621.285156 1353.150391 L 635.324219 1353.150391 L 635.324219 1369.349609 L 654.359375 1369.349609 L 654.359375 1380.960938 L 635.324219 1380.960938 L 635.324219 1420.515625 C 635.324219 1426.320313 638.160278 1429.289063 643.695313 1429.289063 L 654.224609 1429.289063 L 654.224609 1440.900391 L 642.480469 1440.900391 Z M 963.240234 1440.900391 C 953.790222 1440.900391 947.580078 1434.824951 947.580078 1425.240234 L 947.580078 1345.050781 L 961.619141 1345.050781 L 961.619141 1424.564453 C 961.619141 1427.804443 963.105896 1429.289063 966.210938 1429.289063 L 972.150391 1429.289063 L 972.150391 1440.900391 L 963.240234 1440.900391 Z M 1150.214844 1440.900391 C 1136.444824 1440.900391 1129.019531 1433.745117 1129.019531 1420.515625 L 1129.019531 1380.960938 L 1118.220703 1380.960938 L 1118.220703 1369.349609 L 1129.019531 1369.349609 L 1129.019531 1353.150391 L 1143.060547 1353.150391 L 1143.060547 1369.349609 L 1162.095703 1369.349609 L 1162.095703 1380.960938 L 1143.060547 1380.960938 L 1143.060547 1420.515625 C 1143.060547 1426.320313 1145.894653 1429.289063 1151.429688 1429.289063 L 1161.960938 1429.289063 L 1161.960938 1440.900391 L 1150.214844 1440.900391 Z M 1243.5 1440.900391 L 1243.5 1369.349609 L 1256.324219 1369.349609 L 1256.730469 1382.849609 C 1259.025513 1373.670166 1264.425293 1369.349609 1273.740234 1369.349609 L 1280.625 1369.349609 L 1280.625 1380.960938 L 1273.605469 1380.960938 C 1262.535522 1380.960938 1257.539063 1387.036255 1257.539063 1399.050781 L 1257.539063 1440.900391 L 1243.5 1440.900391 Z M 1379.849609 1440.900391 C 1370.399658 1440.900391 1364.189453 1434.824951 1364.189453 1425.240234 L 1364.189453 1345.050781 L 1378.230469 1345.050781 L 1378.230469 1424.564453 C 1378.230469 1427.804443 1379.715332 1429.289063 1382.820313 1429.289063 L 1388.759766 1429.289063 L 1388.759766 1440.900391 L 1379.849609 1440.900391 Z M 1571.685547 1440.900391 L 1571.685547 1369.349609 L 1584.375 1369.349609 L 1584.779297 1381.095703 C 1588.289307 1372.591187 1595.578979 1367.730469 1605.164063 1367.730469 C 1615.424072 1367.730469 1622.850098 1373.130615 1625.955078 1382.580078 C 1629.195068 1372.860596 1636.619873 1367.730469 1647.419922 1367.730469 C 1661.999878 1367.730469 1670.640625 1377.450684 1670.640625 1394.865234 L 1670.640625 1440.900391 L 1656.599609 1440.900391 L 1656.599609 1399.050781 C 1656.599609 1386.496338 1652.010132 1379.609375 1643.910156 1379.609375 C 1633.650146 1379.609375 1627.845703 1386.631226 1627.845703 1399.050781 L 1627.845703 1440.900391 L 1614.480469 1440.900391 L 1614.480469 1399.050781 C 1614.480469 1386.766235 1609.889038 1379.609375 1601.789063 1379.609375 C 1591.664063 1379.609375 1585.724609 1386.766235 1585.724609 1399.050781 L 1585.724609 1440.900391 L 1571.685547 1440.900391 Z M 1683.464844 1440.900391 L 1683.464844 1369.349609 L 1696.154297 1369.349609 L 1696.560547 1381.095703 C 1700.070435 1372.591187 1707.360352 1367.730469 1716.945313 1367.730469 C 1727.205322 1367.730469 1734.629395 1373.130615 1737.734375 1382.580078 C 1740.974365 1372.860596 1748.399292 1367.730469 1759.199219 1367.730469 C 1773.779297 1367.730469 1782.419922 1377.450684 1782.419922 1394.865234 L 1782.419922 1440.900391 L 1768.380859 1440.900391 L 1768.380859 1399.050781 C 1768.380859 1386.496338 1763.789551 1379.609375 1755.689453 1379.609375 C 1745.429565 1379.609375 1739.625 1386.631226 1739.625 1399.050781 L 1739.625 1440.900391 L 1726.259766 1440.900391 L 1726.259766 1399.050781 C 1726.259766 1386.766235 1721.67041 1379.609375 1713.570313 1379.609375 C 1703.445313 1379.609375 1697.505859 1386.766235 1697.505859 1399.050781 L 1697.505859 1440.900391 L 1683.464844 1440.900391 Z M 1795.244141 1440.900391 L 1795.244141 1369.349609 L 1809.285156 1369.349609 L 1809.285156 1440.900391 L 1795.244141 1440.900391 Z M 1960.755859 1440.900391 L 1960.755859 1369.349609 L 1974.794922 1369.349609 L 1974.794922 1440.900391 L 1960.755859 1440.900391 Z M 2064.705078 1440.900391 L 2064.705078 1369.349609 L 2077.394531 1369.349609 L 2077.800781 1381.5 C 2081.580811 1371.915527 2089.814941 1367.730469 2099.669922 1367.730469 C 2115.735107 1367.730469 2123.835938 1379.340698 2123.835938 1394.865234 L 2123.835938 1440.900391 L 2109.794922 1440.900391 L 2109.794922 1399.050781 C 2109.794922 1386.496338 2106.015381 1379.609375 2096.025391 1379.609375 C 2085.360596 1379.609375 2078.746094 1386.496338 2078.746094 1399.050781 L 2078.746094 1440.900391 L 2064.705078 1440.900391 Z M 2310.134766 1440.900391 L 2310.134766 1369.349609 L 2322.960938 1369.349609 L 2323.365234 1382.849609 C 2325.660156 1373.670166 2331.060059 1369.349609 2340.375 1369.349609 L 2347.259766 1369.349609 L 2347.259766 1380.960938 L 2340.240234 1380.960938 C 2329.170166 1380.960938 2324.175781 1387.036255 2324.175781 1399.050781 L 2324.175781 1440.900391 L 2310.134766 1440.900391 Z M 2385.464844 1440.900391 C 2371.694824 1440.900391 2364.269531 1433.745117 2364.269531 1420.515625 L 2364.269531 1380.960938 L 2353.470703 1380.960938 L 2353.470703 1369.349609 L 2364.269531 1369.349609 L 2364.269531 1353.150391 L 2378.310547 1353.150391 L 2378.310547 1369.349609 L 2397.345703 1369.349609 L 2397.345703 1380.960938 L 2378.310547 1380.960938 L 2378.310547 1420.515625 C 2378.310547 1426.320313 2381.144775 1429.289063 2386.679688 1429.289063 L 2397.210938 1429.289063 L 2397.210938 1440.900391 L 2385.464844 1440.900391 Z M 2407.605469 1440.900391 L 2407.605469 1369.349609 L 2421.644531 1369.349609 L 2421.644531 1440.900391 L 2407.605469 1440.900391 Z M 2445.134766 1440.900391 L 2445.134766 1381.769531 L 2435.279297 1381.769531 L 2435.279297 1370.160156 L 2445.134766 1370.160156 L 2445.134766 1365.974609 C 2445.134766 1353.015137 2451.615479 1345.050781 2466.060547 1345.050781 L 2478.074219 1345.050781 L 2478.074219 1356.660156 L 2467.003906 1356.660156 C 2462.414063 1356.660156 2459.175781 1360.169678 2459.175781 1365.974609 L 2459.175781 1370.160156 L 2477.128906 1370.160156 L 2477.128906 1381.769531 L 2459.175781 1381.769531 L 2459.175781 1440.900391 L 2445.134766 1440.900391 Z M 2488.875 1440.900391 L 2488.875 1369.349609 L 2502.914063 1369.349609 L 2502.914063 1440.900391 L 2488.875 1440.900391 Z M 2687.189453 1440.900391 C 2673.419434 1440.900391 2665.996094 1433.745117 2665.996094 1420.515625 L 2665.996094 1380.960938 L 2655.195313 1380.960938 L 2655.195313 1369.349609 L 2665.996094 1369.349609 L 2665.996094 1353.150391 L 2680.035156 1353.150391 L 2680.035156 1369.349609 L 2699.070313 1369.349609 L 2699.070313 1380.960938 L 2680.035156 1380.960938 L 2680.035156 1420.515625 C 2680.035156 1426.320313 2682.869385 1429.289063 2688.404297 1429.289063 L 2698.935547 1429.289063 L 2698.935547 1440.900391 L 2687.189453 1440.900391 Z M 2709.330078 1440.900391 L 2709.330078 1369.349609 L 2723.371094 1369.349609 L 2723.371094 1440.900391 L 2709.330078 1440.900391 Z M 2813.279297 1440.900391 L 2813.279297 1369.349609 L 2825.970703 1369.349609 L 2826.375 1381.5 C 2830.155029 1371.915527 2838.390869 1367.730469 2848.246094 1367.730469 C 2864.311035 1367.730469 2872.410156 1379.340698 2872.410156 1394.865234 L 2872.410156 1440.900391 L 2858.371094 1440.900391 L 2858.371094 1399.050781 C 2858.371094 1386.496338 2854.5896 1379.609375 2844.599609 1379.609375 C 2833.93457 1379.609375 2827.320313 1386.496338 2827.320313 1399.050781 L 2827.320313 1440.900391 L 2813.279297 1440.900391 Z M 3060.330078 1440.900391 L 3060.330078 1369.349609 L 3073.019531 1369.349609 L 3073.425781 1381.095703 C 3076.935791 1372.591187 3084.225586 1367.730469 3093.810547 1367.730469 C 3104.070557 1367.730469 3111.494629 1373.130615 3114.599609 1382.580078 C 3117.8396 1372.860596 3125.264404 1367.730469 3136.064453 1367.730469 C 3150.644531 1367.730469 3159.285156 1377.450684 3159.285156 1394.865234 L 3159.285156 1440.900391 L 3145.246094 1440.900391 L 3145.246094 1399.050781 C 3145.246094 1386.496338 3140.654785 1379.609375 3132.554688 1379.609375 C 3122.294678 1379.609375 3116.490234 1386.631226 3116.490234 1399.050781 L 3116.490234 1440.900391 L 3103.125 1440.900391 L 3103.125 1399.050781 C 3103.125 1386.766235 3098.5354 1379.609375 3090.435547 1379.609375 C 3080.310547 1379.609375 3074.371094 1386.766235 3074.371094 1399.050781 L 3074.371094 1440.900391 L 3060.330078 1440.900391 Z M 3172.109375 1440.900391 L 3172.109375 1369.349609 L 3186.150391 1369.349609 L 3186.150391 1440.900391 L 3172.109375 1440.900391 Z M 3200.595703 1440.900391 L 3200.595703 1369.349609 L 3213.285156 1369.349609 L 3213.689453 1381.5 C 3217.469482 1371.915527 3225.705566 1367.730469 3235.560547 1367.730469 C 3251.625488 1367.730469 3259.724609 1379.340698 3259.724609 1394.865234 L 3259.724609 1440.900391 L 3245.685547 1440.900391 L 3245.685547 1399.050781 C 3245.685547 1386.496338 3241.904053 1379.609375 3231.914063 1379.609375 C 3221.249023 1379.609375 3214.634766 1386.496338 3214.634766 1399.050781 L 3214.634766 1440.900391 L 3200.595703 1440.900391 Z M 3594.525391 1440.900391 L 3594.525391 1369.349609 L 3607.214844 1369.349609 L 3607.621094 1381.5 C 3611.400879 1371.915527 3619.635254 1367.730469 3629.490234 1367.730469 C 3645.555176 1367.730469 3653.654297 1379.340698 3653.654297 1394.865234 L 3653.654297 1440.900391 L 3639.615234 1440.900391 L 3639.615234 1399.050781 C 3639.615234 1386.496338 3635.835693 1379.609375 3625.845703 1379.609375 C 3615.180664 1379.609375 3608.564453 1386.496338 3608.564453 1399.050781 L 3608.564453 1440.900391 L 3594.525391 1440.900391 Z M 1313.294922 1431.449219 C 1324.229858 1431.449219 1332.599609 1423.755249 1332.599609 1408.095703 L 1332.599609 1407.419922 L 1317.210938 1410.119141 C 1307.220947 1411.874146 1299.390625 1412.685547 1299.390625 1421.865234 C 1299.390625 1427.130005 1303.844849 1431.449219 1313.294922 1431.449219 Z M 2614.830078 1431.449219 C 2625.764893 1431.449219 2634.134766 1423.755249 2634.134766 1408.095703 L 2634.134766 1407.419922 L 2618.746094 1410.119141 C 2608.755859 1411.874146 2600.925781 1412.685547 2600.925781 1421.865234 C 2600.925781 1427.130005 2605.379883 1431.449219 2614.830078 1431.449219 Z M 476.025391 1430.234375 C 489.6604 1430.234375 495.195313 1417.949463 495.195313 1405.125 C 495.195313 1391.760498 489.79541 1379.609375 476.025391 1379.609375 C 462.255402 1379.609375 456.720703 1391.895508 456.720703 1405.125 C 456.720703 1417.949463 462.255402 1430.234375 476.025391 1430.234375 Z M 1198.949219 1430.234375 C 1211.234253 1430.234375 1218.255859 1420.784546 1218.255859 1405.125 C 1218.255859 1389.465454 1211.234253 1380.015625 1198.949219 1380.015625 C 1186.664307 1380.015625 1179.644531 1389.465454 1179.644531 1405.125 C 1179.644531 1420.784546 1186.664307 1430.234375 1198.949219 1430.234375 Z M 1527.134766 1430.234375 C 1539.4198 1430.234375 1546.439453 1420.784546 1546.439453 1405.125 C 1546.439453 1389.465454 1539.4198 1380.015625 1527.134766 1380.015625 C 1514.849731 1380.015625 1507.830078 1389.465454 1507.830078 1405.125 C 1507.830078 1420.784546 1514.849731 1430.234375 1527.134766 1430.234375 Z M 2020.154297 1430.234375 C 2032.439209 1430.234375 2039.460938 1420.784546 2039.460938 1405.125 C 2039.460938 1389.465454 2032.439209 1380.015625 2020.154297 1380.015625 C 2007.869263 1380.015625 2000.849609 1389.465454 2000.849609 1405.125 C 2000.849609 1420.784546 2007.869263 1430.234375 2020.154297 1430.234375 Z M 2768.730469 1430.234375 C 2781.015381 1430.234375 2788.035156 1420.784546 2788.035156 1405.125 C 2788.035156 1389.465454 2781.015381 1380.015625 2768.730469 1380.015625 C 2756.445557 1380.015625 2749.425781 1389.465454 2749.425781 1405.125 C 2749.425781 1420.784546 2756.445557 1430.234375 2768.730469 1430.234375 Z M 3015.779297 1430.234375 C 3028.064209 1430.234375 3035.085938 1420.784546 3035.085938 1405.125 C 3035.085938 1389.465454 3028.064209 1380.015625 3015.779297 1380.015625 C 3003.494385 1380.015625 2996.474609 1389.465454 2996.474609 1405.125 C 2996.474609 1420.784546 3003.494385 1430.234375 3015.779297 1430.234375 Z M 3475.455078 1430.234375 C 3487.73999 1430.234375 3494.759766 1420.784546 3494.759766 1405.125 C 3494.759766 1389.465454 3487.73999 1380.015625 3475.455078 1380.015625 C 3463.169922 1380.015625 3456.150391 1389.465454 3456.150391 1405.125 C 3456.150391 1420.784546 3463.169922 1430.234375 3475.455078 1430.234375 Z M 3549.974609 1430.234375 C 3562.259521 1430.234375 3569.279297 1420.784546 3569.279297 1405.125 C 3569.279297 1389.465454 3562.259521 1380.015625 3549.974609 1380.015625 C 3537.689453 1380.015625 3530.669922 1389.465454 3530.669922 1405.125 C 3530.669922 1420.784546 3537.689453 1430.234375 3549.974609 1430.234375 Z M 793.005859 1429.964844 C 798.810852 1429.964844 804.075623 1428.210449 806.640625 1425.105469 L 785.175781 1397.970703 C 779.640808 1401.615723 772.484375 1407.015503 772.484375 1415.115234 C 772.484375 1424.160034 780.315857 1429.964844 793.005859 1429.964844 Z M 3301.980469 1425.375 C 3313.455566 1425.375 3320.611084 1415.924805 3320.746094 1402.695313 C 3320.880859 1389.46582 3313.725586 1380.015625 3301.980469 1380.015625 C 3290.235596 1380.015625 3283.214844 1389.46582 3283.214844 1402.695313 C 3283.214844 1415.924805 3290.370605 1425.375 3301.980469 1425.375 Z M 383.550781 1398.375 L 419.865234 1398.375 C 417.97525 1384.605469 410.549194 1379.880859 402.449219 1379.880859 C 391.91922 1379.880859 385.305786 1386.765503 383.550781 1398.375 Z M 672.314453 1398.375 L 708.630859 1398.375 C 706.740845 1384.605469 699.314819 1379.880859 691.214844 1379.880859 C 680.684814 1379.880859 674.069458 1386.765503 672.314453 1398.375 Z M 884.265625 1398.375 L 920.580078 1398.375 C 918.690063 1384.605469 911.264099 1379.880859 903.164063 1379.880859 C 892.634094 1379.880859 886.02063 1386.765503 884.265625 1398.375 Z M 991.724609 1398.375 L 1028.039063 1398.375 C 1026.149048 1384.605469 1018.724976 1379.880859 1010.625 1379.880859 C 1000.094971 1379.880859 993.479614 1386.765503 991.724609 1398.375 Z M 2248.304688 1398.375 L 2284.621094 1398.375 C 2282.730957 1384.605469 2275.304932 1379.880859 2267.205078 1379.880859 C 2256.675049 1379.880859 2250.059814 1386.765503 2248.304688 1398.375 Z M 788.414063 1381.095703 C 796.514099 1377.315674 801.509766 1371.645874 801.509766 1366.380859 C 801.509766 1360.575928 798.269409 1356.38916 792.734375 1356.119141 C 786.794373 1355.714111 782.070068 1360.575928 782.205078 1366.380859 C 782.205078 1370.295898 783.959106 1375.020752 788.414063 1381.095703 Z M 588.345703 1358.685547 L 588.345703 1345.050781 L 602.925781 1345.050781 L 602.925781 1358.685547 L 588.345703 1358.685547 Z M 1795.109375 1358.685547 L 1795.109375 1345.050781 L 1809.689453 1345.050781 L 1809.689453 1358.685547 L 1795.109375 1358.685547 Z M 1960.619141 1358.685547 L 1960.619141 1345.050781 L 1975.199219 1345.050781 L 1975.199219 1358.685547 L 1960.619141 1358.685547 Z M 2407.470703 1358.685547 L 2407.470703 1345.050781 L 2422.050781 1345.050781 L 2422.050781 1358.685547 L 2407.470703 1358.685547 Z M 2488.740234 1358.685547 L 2488.740234 1345.050781 L 2503.320313 1345.050781 L 2503.320313 1358.685547 L 2488.740234 1358.685547 Z M 2709.195313 1358.685547 L 2709.195313 1345.050781 L 2723.775391 1345.050781 L 2723.775391 1358.685547 L 2709.195313 1358.685547 Z M 3171.974609 1358.685547 L 3171.974609 1345.050781 L 3186.554688 1345.050781 L 3186.554688 1358.685547 L 3171.974609 1358.685547 Z M 1154.265625 1279.869141 C 1138.605591 1279.869141 1126.859863 1271.634766 1123.214844 1259.214844 L 1137.794922 1258.269531 C 1140.494873 1264.344482 1146.165405 1267.990234 1154.400391 1267.990234 C 1166.010376 1267.990234 1173.029297 1262.86084 1173.029297 1253.005859 L 1173.029297 1242.474609 C 1168.844238 1250.304565 1160.880371 1254.355469 1153.320313 1254.355469 C 1133.745361 1254.355469 1121.324219 1240.0448 1121.324219 1219.794922 C 1121.324219 1199.410034 1134.150391 1184.830078 1153.320313 1184.830078 C 1162.635376 1184.830078 1170.330322 1189.824585 1173.570313 1197.519531 L 1173.570313 1186.449219 L 1187.070313 1186.449219 L 1187.070313 1250.574219 C 1187.070313 1269.474121 1173.705566 1279.869141 1154.265625 1279.869141 Z M 1953.599609 1279.869141 C 1937.939575 1279.869141 1926.195679 1271.634521 1922.550781 1259.214844 L 1937.130859 1258.269531 C 1939.830811 1264.344482 1945.49939 1267.990234 1953.734375 1267.990234 C 1965.34436 1267.990234 1972.365234 1262.86084 1972.365234 1253.005859 L 1972.365234 1242.474609 C 1968.180298 1250.304565 1960.214233 1254.355469 1952.654297 1254.355469 C 1933.079224 1254.355469 1920.660156 1240.044434 1920.660156 1219.794922 C 1920.660156 1199.4104 1933.484253 1184.830078 1952.654297 1184.830078 C 1961.969238 1184.830078 1969.664307 1189.824585 1972.904297 1197.519531 L 1972.904297 1186.449219 L 1986.404297 1186.449219 L 1986.404297 1250.574219 C 1986.404297 1269.473999 1973.039673 1279.869141 1953.599609 1279.869141 Z M 1431.554688 1279.060547 L 1437.089844 1258 L 1431.015625 1258 L 1431.015625 1241.664063 L 1447.619141 1241.664063 L 1447.619141 1258 L 1439.519531 1279.060547 L 1431.554688 1279.060547 Z M 2568.121094 1278.25 L 2568.121094 1186.449219 L 2581.214844 1186.449219 L 2581.621094 1196.845703 C 2585.535889 1189.150635 2592.960449 1184.830078 2603.355469 1184.830078 C 2624.415527 1184.830078 2634.134766 1202.245361 2634.134766 1222.224609 C 2634.134766 1242.203735 2624.415527 1259.619141 2603.355469 1259.619141 C 2593.500488 1259.619141 2586.210205 1255.704346 2582.160156 1248.279297 L 2582.160156 1278.25 L 2568.121094 1278.25 Z M 893.849609 1259.619141 C 879.539612 1259.619141 868.064453 1252.059326 868.064453 1239.234375 C 868.064453 1224.789429 878.729431 1220.739746 895.064453 1217.634766 L 915.585938 1213.585938 C 915.450928 1202.110962 910.184265 1196.574219 899.654297 1196.574219 C 891.284241 1196.574219 885.749634 1200.759644 883.724609 1208.724609 L 869.279297 1207.779297 C 872.114258 1193.469238 883.454285 1184.830078 899.654297 1184.830078 C 919.094238 1184.830078 929.625 1195.630371 929.625 1215.070313 L 929.625 1242.070313 C 929.625 1245.445313 931.110291 1246.660156 933.945313 1246.660156 L 936.914063 1246.660156 L 936.914063 1258 L 932.189453 1258 C 925.709473 1258.13501 917.204102 1256.784424 916.664063 1247.064453 C 913.559082 1253.814453 905.594604 1259.619141 893.849609 1259.619141 Z M 1010.085938 1259.619141 C 999.285889 1259.619141 991.725525 1255.299805 987.810547 1248.009766 L 987.404297 1258 L 974.310547 1258 L 974.310547 1162.150391 L 988.349609 1162.150391 L 988.349609 1195.765625 C 992.534607 1188.610596 999.825928 1184.830078 1010.085938 1184.830078 C 1030.605835 1184.830078 1040.324219 1202.244629 1040.324219 1222.224609 C 1040.324219 1242.20459 1030.605835 1259.619141 1010.085938 1259.619141 Z M 1352.310547 1259.619141 C 1331.790527 1259.619141 1318.425781 1245.039307 1318.425781 1222.224609 C 1318.425781 1199.409912 1331.790527 1184.830078 1352.310547 1184.830078 C 1369.050537 1184.830078 1383.629517 1195.899292 1384.439453 1221.414063 L 1384.574219 1226.275391 L 1333.140625 1226.275391 C 1334.220581 1239.640381 1340.970459 1247.470703 1352.310547 1247.470703 C 1359.465454 1247.470703 1365.809326 1243.420166 1368.779297 1236.535156 L 1383.494141 1237.615234 C 1379.309204 1251.115234 1366.755493 1259.619141 1352.310547 1259.619141 Z M 1522.410156 1259.619141 C 1511.610107 1259.619141 1504.049805 1255.299805 1500.134766 1248.009766 L 1499.730469 1258 L 1486.634766 1258 L 1486.634766 1162.150391 L 1500.675781 1162.150391 L 1500.675781 1195.765625 C 1504.860718 1188.610596 1512.150146 1184.830078 1522.410156 1184.830078 C 1542.930176 1184.830078 1552.650391 1202.244873 1552.650391 1222.224609 C 1552.650391 1242.204224 1542.930176 1259.619141 1522.410156 1259.619141 Z M 1593.285156 1259.619141 C 1572.765137 1259.619141 1559.400391 1245.039307 1559.400391 1222.224609 C 1559.400391 1199.409912 1572.765137 1184.830078 1593.285156 1184.830078 C 1613.805176 1184.830078 1627.169922 1199.409912 1627.169922 1222.224609 C 1627.169922 1245.039307 1613.805176 1259.619141 1593.285156 1259.619141 Z M 1667.804688 1259.619141 C 1647.284668 1259.619141 1633.919922 1245.039185 1633.919922 1222.224609 C 1633.919922 1199.410034 1647.284668 1184.830078 1667.804688 1184.830078 C 1688.324585 1184.830078 1701.689453 1199.410034 1701.689453 1222.224609 C 1701.689453 1245.039185 1688.324585 1259.619141 1667.804688 1259.619141 Z M 2259.644531 1259.619141 C 2245.334473 1259.619141 2233.859375 1252.059326 2233.859375 1239.234375 C 2233.859375 1224.789429 2244.52417 1220.739746 2260.859375 1217.634766 L 2281.378906 1213.585938 C 2281.244141 1202.110962 2275.979248 1196.574219 2265.449219 1196.574219 C 2257.079346 1196.574219 2251.544434 1200.759644 2249.519531 1208.724609 L 2235.074219 1207.779297 C 2237.90918 1193.469238 2249.249268 1184.830078 2265.449219 1184.830078 C 2284.88916 1184.830078 2295.419922 1195.630981 2295.419922 1215.070313 L 2295.419922 1242.070313 C 2295.419922 1245.445313 2296.905273 1246.660156 2299.740234 1246.660156 L 2302.710938 1246.660156 L 2302.710938 1258 L 2297.984375 1258 C 2291.50415 1258.13501 2283.000977 1256.784424 2282.460938 1247.064453 C 2279.355957 1253.814453 2271.389404 1259.619141 2259.644531 1259.619141 Z M 2500.080078 1259.619141 C 2481.98999 1259.619141 2468.894531 1250.305054 2467.814453 1235.455078 L 2482.259766 1234.509766 C 2483.609863 1242.609741 2489.955322 1247.605469 2499.945313 1247.605469 C 2506.290283 1247.605469 2514.525391 1245.445068 2514.525391 1238.830078 C 2514.390381 1231.000122 2505.345703 1230.055786 2497.515625 1228.300781 C 2482.665771 1225.060791 2469.570313 1221.14502 2469.570313 1207.375 C 2469.570313 1193.469971 2480.775879 1184.830078 2498.460938 1184.830078 C 2513.716064 1184.830078 2525.595703 1193.875732 2527.890625 1208.050781 L 2513.445313 1208.859375 C 2511.960205 1201.299316 2504.670898 1196.710938 2497.246094 1196.710938 C 2489.956055 1196.710938 2484.015381 1200.490967 2484.150391 1206.835938 C 2484.150391 1213.315918 2492.655273 1216.015259 2499.945313 1217.365234 C 2517.495361 1220.605225 2529.105469 1225.329102 2529.105469 1239.369141 C 2529.105469 1253.40918 2514.794922 1259.619141 2500.080078 1259.619141 Z M 2674.769531 1259.619141 C 2654.249512 1259.619141 2640.884766 1245.038818 2640.884766 1222.224609 C 2640.884766 1199.4104 2654.249512 1184.830078 2674.769531 1184.830078 C 2695.289551 1184.830078 2708.654297 1199.4104 2708.654297 1222.224609 C 2708.654297 1245.038818 2695.289551 1259.619141 2674.769531 1259.619141 Z M 2747.669922 1259.619141 C 2729.580078 1259.619141 2716.484375 1250.305054 2715.404297 1235.455078 L 2729.849609 1234.509766 C 2731.199463 1242.609741 2737.545166 1247.605469 2747.535156 1247.605469 C 2753.880127 1247.605469 2762.115234 1245.445068 2762.115234 1238.830078 C 2761.980225 1231.000122 2752.935547 1230.055786 2745.105469 1228.300781 C 2730.255371 1225.060791 2717.160156 1221.14502 2717.160156 1207.375 C 2717.160156 1193.469971 2728.365723 1184.830078 2746.050781 1184.830078 C 2761.305664 1184.830078 2773.185547 1193.875732 2775.480469 1208.050781 L 2761.035156 1208.859375 C 2759.550293 1201.299316 2752.260986 1196.710938 2744.835938 1196.710938 C 2737.545898 1196.710938 2731.605225 1200.490967 2731.740234 1206.835938 C 2731.740234 1213.315918 2740.245361 1216.015259 2747.535156 1217.365234 C 2765.085205 1220.605225 2776.695313 1225.329102 2776.695313 1239.369141 C 2776.695313 1253.40918 2762.38501 1259.619141 2747.669922 1259.619141 Z M 2815.710938 1259.619141 C 2797.621094 1259.619141 2784.525146 1250.305054 2783.445313 1235.455078 L 2797.890625 1234.509766 C 2799.240723 1242.609741 2805.584229 1247.605469 2815.574219 1247.605469 C 2821.919189 1247.605469 2830.154297 1245.445068 2830.154297 1238.830078 C 2830.019287 1231.000122 2820.974609 1230.055786 2813.144531 1228.300781 C 2798.294434 1225.060791 2785.199219 1221.14502 2785.199219 1207.375 C 2785.199219 1193.469971 2796.404785 1184.830078 2814.089844 1184.830078 C 2829.344727 1184.830078 2841.224609 1193.875732 2843.519531 1208.050781 L 2829.074219 1208.859375 C 2827.589355 1201.299316 2820.300049 1196.710938 2812.875 1196.710938 C 2805.584961 1196.710938 2799.644287 1200.490967 2799.779297 1206.835938 C 2799.779297 1213.315918 2808.28418 1216.015259 2815.574219 1217.365234 C 2833.124268 1220.605225 2844.734375 1225.329102 2844.734375 1239.369141 C 2844.734375 1253.40918 2830.426025 1259.619141 2815.710938 1259.619141 Z M 2917.634766 1259.619141 C 2906.834717 1259.619141 2899.27417 1255.299805 2895.359375 1248.009766 L 2894.955078 1258 L 2881.859375 1258 L 2881.859375 1162.150391 L 2895.900391 1162.150391 L 2895.900391 1195.765625 C 2900.085449 1188.610596 2907.374756 1184.830078 2917.634766 1184.830078 C 2938.154785 1184.830078 2947.875 1202.245605 2947.875 1222.224609 C 2947.875 1242.203613 2938.154785 1259.619141 2917.634766 1259.619141 Z M 3023.070313 1259.619141 C 3002.550293 1259.619141 2989.185547 1245.038574 2989.185547 1222.224609 C 2989.185547 1199.410645 3002.550293 1184.830078 3023.070313 1184.830078 C 3039.810303 1184.830078 3054.38916 1195.900024 3055.199219 1221.414063 L 3055.335938 1226.275391 L 3003.900391 1226.275391 C 3004.980469 1239.640381 3011.730225 1247.470703 3023.070313 1247.470703 C 3030.225342 1247.470703 3036.569092 1243.420166 3039.539063 1236.535156 L 3054.253906 1237.615234 C 3050.069092 1251.115234 3037.515137 1259.619141 3023.070313 1259.619141 Z M 1050.990234 1258 L 1050.990234 1186.449219 L 1063.814453 1186.449219 L 1064.220703 1199.949219 C 1066.515747 1190.769165 1071.915527 1186.449219 1081.230469 1186.449219 L 1088.115234 1186.449219 L 1088.115234 1198.060547 L 1081.095703 1198.060547 C 1070.025757 1198.060547 1065.029297 1204.135376 1065.029297 1216.150391 L 1065.029297 1258 L 1050.990234 1258 Z M 1095.810547 1258 L 1095.810547 1186.449219 L 1109.849609 1186.449219 L 1109.849609 1258 L 1095.810547 1258 Z M 1203.404297 1258 L 1203.404297 1162.150391 L 1217.445313 1162.150391 L 1217.445313 1196.035156 C 1221.630371 1188.205078 1229.730835 1184.830078 1238.505859 1184.830078 C 1254.570801 1184.830078 1262.535156 1196.709839 1262.535156 1211.964844 L 1262.535156 1258 L 1248.494141 1258 L 1248.494141 1216.824219 C 1248.494141 1204.269165 1244.7146 1197.384766 1234.724609 1197.384766 C 1224.059692 1197.384766 1217.445313 1204.269165 1217.445313 1216.824219 L 1217.445313 1258 L 1203.404297 1258 Z M 1303.574219 1258 C 1289.804321 1258 1282.380859 1250.845215 1282.380859 1237.615234 L 1282.380859 1198.060547 L 1271.580078 1198.060547 L 1271.580078 1186.449219 L 1282.380859 1186.449219 L 1282.380859 1170.25 L 1296.419922 1170.25 L 1296.419922 1186.449219 L 1315.455078 1186.449219 L 1315.455078 1198.060547 L 1296.419922 1198.060547 L 1296.419922 1237.615234 C 1296.419922 1243.420288 1299.254028 1246.390625 1304.789063 1246.390625 L 1315.320313 1246.390625 L 1315.320313 1258 L 1303.574219 1258 Z M 1395.240234 1258 L 1395.240234 1186.449219 L 1408.064453 1186.449219 L 1408.470703 1199.949219 C 1410.765747 1190.769165 1416.165527 1186.449219 1425.480469 1186.449219 L 1432.365234 1186.449219 L 1432.365234 1198.060547 L 1425.345703 1198.060547 C 1414.275757 1198.060547 1409.279297 1204.135376 1409.279297 1216.150391 L 1409.279297 1258 L 1395.240234 1258 Z M 1712.355469 1258 L 1712.355469 1186.449219 L 1725.044922 1186.449219 L 1725.449219 1198.195313 C 1728.959229 1189.690308 1736.250977 1184.830078 1745.835938 1184.830078 C 1756.095947 1184.830078 1763.52002 1190.229736 1766.625 1199.679688 C 1769.86499 1189.959717 1777.289917 1184.830078 1788.089844 1184.830078 C 1802.669922 1184.830078 1811.310547 1194.550293 1811.310547 1211.964844 L 1811.310547 1258 L 1797.269531 1258 L 1797.269531 1216.150391 C 1797.269531 1203.595459 1792.680176 1196.710938 1784.580078 1196.710938 C 1774.320068 1196.710938 1768.515625 1203.730469 1768.515625 1216.150391 L 1768.515625 1258 L 1755.150391 1258 L 1755.150391 1216.150391 C 1755.150391 1203.865356 1750.561035 1196.710938 1742.460938 1196.710938 C 1732.335938 1196.710938 1726.394531 1203.865356 1726.394531 1216.150391 L 1726.394531 1258 L 1712.355469 1258 Z M 1824.134766 1258 L 1824.134766 1186.449219 L 1838.175781 1186.449219 L 1838.175781 1258 L 1824.134766 1258 Z M 1852.619141 1258 L 1852.619141 1186.449219 L 1865.310547 1186.449219 L 1865.714844 1198.599609 C 1869.494873 1189.014648 1877.730957 1184.830078 1887.585938 1184.830078 C 1903.651001 1184.830078 1911.75 1196.440308 1911.75 1211.964844 L 1911.75 1258 L 1897.710938 1258 L 1897.710938 1216.150391 C 1897.710938 1203.595459 1893.929565 1196.710938 1883.939453 1196.710938 C 1873.274536 1196.710938 1866.660156 1203.595459 1866.660156 1216.150391 L 1866.660156 1258 L 1852.619141 1258 Z M 2031.224609 1258 L 2031.224609 1162.150391 L 2064.839844 1162.150391 C 2088.464844 1162.150391 2100.210938 1170.789673 2100.210938 1188.744141 C 2100.210938 1199.814209 2093.595703 1206.970093 2082.390625 1208.455078 C 2096.160645 1209.940063 2104.259766 1218.175293 2104.259766 1230.865234 C 2104.259766 1248.414673 2092.245361 1258 2070.240234 1258 L 2031.224609 1258 Z M 2117.625 1258 L 2117.625 1186.449219 L 2130.449219 1186.449219 L 2130.855469 1199.949219 C 2133.150391 1190.769165 2138.550293 1186.449219 2147.865234 1186.449219 L 2154.75 1186.449219 L 2154.75 1198.060547 L 2147.730469 1198.060547 C 2136.6604 1198.060547 2131.664063 1204.135376 2131.664063 1216.150391 L 2131.664063 1258 L 2117.625 1258 Z M 2162.445313 1258 L 2162.445313 1186.449219 L 2176.484375 1186.449219 L 2176.484375 1258 L 2162.445313 1258 Z M 2216.445313 1258 C 2202.675293 1258 2195.25 1250.845215 2195.25 1237.615234 L 2195.25 1198.060547 L 2184.449219 1198.060547 L 2184.449219 1186.449219 L 2195.25 1186.449219 L 2195.25 1170.25 L 2209.289063 1170.25 L 2209.289063 1186.449219 L 2228.324219 1186.449219 L 2228.324219 1198.060547 L 2209.289063 1198.060547 L 2209.289063 1237.615234 C 2209.289063 1243.420288 2212.125244 1246.390625 2217.660156 1246.390625 L 2228.189453 1246.390625 L 2228.189453 1258 L 2216.445313 1258 Z M 2311.621094 1258 L 2311.621094 1186.449219 L 2325.660156 1186.449219 L 2325.660156 1258 L 2311.621094 1258 Z M 2340.105469 1258 L 2340.105469 1186.449219 L 2352.794922 1186.449219 L 2353.199219 1198.599609 C 2356.979248 1189.014648 2365.215332 1184.830078 2375.070313 1184.830078 C 2391.135254 1184.830078 2399.234375 1196.440552 2399.234375 1211.964844 L 2399.234375 1258 L 2385.195313 1258 L 2385.195313 1216.150391 C 2385.195313 1203.595459 2381.415771 1196.710938 2371.425781 1196.710938 C 2360.760742 1196.710938 2354.144531 1203.595459 2354.144531 1216.150391 L 2354.144531 1258 L 2340.105469 1258 Z M 2442.300781 1258 L 2442.300781 1186.449219 L 2456.339844 1186.449219 L 2456.339844 1258 L 2442.300781 1258 Z M 2855.400391 1258 L 2855.400391 1186.449219 L 2869.439453 1186.449219 L 2869.439453 1258 L 2855.400391 1258 Z M 2975.685547 1258 C 2966.235596 1258 2960.025391 1251.924805 2960.025391 1242.339844 L 2960.025391 1162.150391 L 2974.064453 1162.150391 L 2974.064453 1241.664063 C 2974.064453 1244.904053 2975.549316 1246.390625 2978.654297 1246.390625 L 2984.595703 1246.390625 L 2984.595703 1258 L 2975.685547 1258 Z M 896.550781 1248.550781 C 907.485779 1248.550781 915.855469 1240.855225 915.855469 1225.195313 L 915.855469 1224.519531 L 900.464844 1227.220703 C 890.474792 1228.975708 882.644531 1229.784912 882.644531 1238.964844 C 882.644531 1244.229858 887.100769 1248.550781 896.550781 1248.550781 Z M 2262.345703 1248.550781 C 2273.280762 1248.550781 2281.650391 1240.854614 2281.650391 1225.195313 L 2281.650391 1224.519531 L 2266.259766 1227.220703 C 2256.269775 1228.975708 2248.439453 1229.784912 2248.439453 1238.964844 C 2248.439453 1244.229858 2252.895752 1248.550781 2262.345703 1248.550781 Z M 1006.574219 1247.335938 C 1020.209229 1247.335938 1025.744141 1235.049561 1025.744141 1222.224609 C 1025.744141 1208.859619 1020.344177 1196.710938 1006.574219 1196.710938 C 992.804199 1196.710938 987.269531 1208.994629 987.269531 1222.224609 C 987.269531 1235.049561 992.804199 1247.335938 1006.574219 1247.335938 Z M 1518.900391 1247.335938 C 1532.5354 1247.335938 1538.070313 1235.049561 1538.070313 1222.224609 C 1538.070313 1208.859619 1532.67041 1196.710938 1518.900391 1196.710938 C 1505.130371 1196.710938 1499.595703 1208.994629 1499.595703 1222.224609 C 1499.595703 1235.049561 1505.130371 1247.335938 1518.900391 1247.335938 Z M 1593.285156 1247.335938 C 1605.570068 1247.335938 1612.589844 1237.884277 1612.589844 1222.224609 C 1612.589844 1206.564941 1605.570068 1197.115234 1593.285156 1197.115234 C 1581.000122 1197.115234 1573.980469 1206.564941 1573.980469 1222.224609 C 1573.980469 1237.884277 1581.000122 1247.335938 1593.285156 1247.335938 Z M 1667.804688 1247.335938 C 1680.0896 1247.335938 1687.109375 1237.884277 1687.109375 1222.224609 C 1687.109375 1206.564941 1680.0896 1197.115234 1667.804688 1197.115234 C 1655.519653 1197.115234 1648.5 1206.564941 1648.5 1222.224609 C 1648.5 1237.884277 1655.519653 1247.335938 1667.804688 1247.335938 Z M 2600.115234 1247.335938 C 2613.750244 1247.335938 2619.285156 1235.18457 2619.285156 1222.224609 C 2619.285156 1209.399658 2613.750244 1197.115234 2600.115234 1197.115234 C 2586.480225 1197.115234 2580.810547 1209.399658 2580.810547 1222.224609 C 2580.810547 1235.049561 2586.615234 1247.335938 2600.115234 1247.335938 Z M 2674.769531 1247.335938 C 2687.054443 1247.335938 2694.074219 1237.883789 2694.074219 1222.224609 C 2694.074219 1206.56543 2687.054443 1197.115234 2674.769531 1197.115234 C 2662.484619 1197.115234 2655.464844 1206.56543 2655.464844 1222.224609 C 2655.464844 1237.883789 2662.484619 1247.335938 2674.769531 1247.335938 Z M 2914.125 1247.335938 C 2927.76001 1247.335938 2933.294922 1235.049561 2933.294922 1222.224609 C 2933.294922 1208.859619 2927.89502 1196.710938 2914.125 1196.710938 C 2900.35498 1196.710938 2894.820313 1208.994629 2894.820313 1222.224609 C 2894.820313 1235.049561 2900.35498 1247.335938 2914.125 1247.335938 Z M 2045.535156 1244.904297 L 2070.375 1244.904297 C 2082.524902 1244.904297 2089.544922 1239.90918 2089.544922 1230.324219 C 2089.544922 1220.739258 2082.524902 1215.609375 2070.375 1215.609375 L 2045.535156 1215.609375 L 2045.535156 1244.904297 Z M 1154.669922 1242.474609 C 1166.144897 1242.474609 1173.300537 1233.024902 1173.435547 1219.794922 C 1173.570435 1206.564941 1166.414917 1197.115234 1154.669922 1197.115234 C 1142.924927 1197.115234 1135.904297 1206.564941 1135.904297 1219.794922 C 1135.904297 1233.024902 1143.059937 1242.474609 1154.669922 1242.474609 Z M 1954.005859 1242.474609 C 1965.480835 1242.474609 1972.634521 1233.024902 1972.769531 1219.794922 C 1972.904541 1206.564941 1965.750854 1197.115234 1954.005859 1197.115234 C 1942.260864 1197.115234 1935.240234 1206.564941 1935.240234 1219.794922 C 1935.240234 1233.024902 1942.395874 1242.474609 1954.005859 1242.474609 Z M 1333.410156 1215.474609 L 1369.724609 1215.474609 C 1367.834595 1201.70459 1360.410522 1196.980469 1352.310547 1196.980469 C 1341.780518 1196.980469 1335.165161 1203.864624 1333.410156 1215.474609 Z M 3004.169922 1215.474609 L 3040.484375 1215.474609 C 3038.594238 1201.70459 3031.170166 1196.980469 3023.070313 1196.980469 C 3012.540283 1196.980469 3005.925049 1203.864624 3004.169922 1215.474609 Z M 2045.535156 1202.919922 L 2065.246094 1202.919922 C 2078.206055 1202.919922 2085.496094 1198.195435 2085.496094 1189.150391 C 2085.496094 1179.835449 2078.611084 1175.244141 2065.246094 1175.244141 L 2045.535156 1175.244141 L 2045.535156 1202.919922 Z M 1095.675781 1175.785156 L 1095.675781 1162.150391 L 1110.255859 1162.150391 L 1110.255859 1175.785156 L 1095.675781 1175.785156 Z M 1824 1175.785156 L 1824 1162.150391 L 1838.580078 1162.150391 L 1838.580078 1175.785156 L 1824 1175.785156 Z M 2162.310547 1175.785156 L 2162.310547 1162.150391 L 2176.890625 1162.150391 L 2176.890625 1175.785156 L 2162.310547 1175.785156 Z M 2311.484375 1175.785156 L 2311.484375 1162.150391 L 2326.064453 1162.150391 L 2326.064453 1175.785156 L 2311.484375 1175.785156 Z M 2442.164063 1175.785156 L 2442.164063 1162.150391 L 2456.746094 1162.150391 L 2456.746094 1175.785156 L 2442.164063 1175.785156 Z M 2855.265625 1175.785156 L 2855.265625 1162.150391 L 2869.845703 1162.150391 L 2869.845703 1175.785156 L 2855.265625 1175.785156 Z"/>
    <g id="Group-copy">
        <path id="youth" fill="#ffffff" fill-rule="evenodd" stroke="none" d="M 314.755859 462.75 L 314.755859 408.460938 L 344.570313 408.460938 C 359.700256 408.460938 367.264893 404.010132 371.714844 393.330078 L 376.609375 381.314453 L 356.140625 381.314453 L 271.589844 160.150391 L 343.234375 160.150391 L 397.970703 315.455078 L 450.480469 160.150391 L 522.125 160.150391 L 430.455078 416.025391 C 418.885132 448.510376 397.079437 462.75 360.144531 462.75 L 314.755859 462.75 Z M 642.720703 401.339844 C 567.07074 401.339844 517.230469 352.38916 517.230469 278.074219 C 517.230469 203.759399 567.07074 154.810547 642.720703 154.810547 C 718.815613 154.810547 768.654297 203.759399 768.654297 278.074219 C 768.654297 352.38916 718.815613 401.339844 642.720703 401.339844 Z M 875.900391 401.339844 C 826.060486 401.339844 794.910156 367.964478 794.910156 311.894531 L 794.910156 160.150391 L 872.339844 160.150391 L 872.339844 285.640625 C 872.339844 321.240601 878.124878 341.265625 903.044922 341.265625 C 927.519897 341.265625 939.089844 321.240601 939.089844 285.640625 L 939.089844 160.150391 L 1016.519531 160.150391 L 1016.519531 396 L 946.654297 396 L 944.875 359.955078 C 931.969971 390.215088 906.1604 401.339844 875.900391 401.339844 Z M 1162.925781 396 C 1108.190674 396 1079.710938 369.300781 1079.710938 313.675781 L 1079.710938 215.775391 L 1039.660156 215.775391 L 1039.660156 160.150391 L 1079.710938 160.150391 L 1079.710938 106.304688 L 1157.140625 106.304688 L 1157.140625 160.150391 L 1218.550781 160.150391 L 1218.550781 215.775391 L 1157.140625 215.775391 L 1157.140625 313.675781 C 1157.140625 330.585693 1166.040527 339.929688 1182.060547 339.929688 L 1219.439453 339.929688 L 1219.439453 396 L 1162.925781 396 Z M 1241.244141 396 L 1241.244141 80.050781 L 1318.675781 80.050781 L 1318.675781 189.519531 C 1332.470703 163.709473 1356.945435 154.810547 1384.980469 154.810547 C 1435.265381 154.810547 1464.189453 192.190796 1464.189453 244.255859 L 1464.189453 396 L 1386.759766 396 L 1386.759766 271.400391 C 1386.759766 236.245361 1380.974487 216.220703 1355.609375 216.220703 C 1330.244385 216.220703 1318.675781 236.245361 1318.675781 271.400391 L 1318.675781 396 L 1241.244141 396 Z M 642.720703 344.380859 C 672.535767 344.380859 689.445313 320.349243 689.445313 278.074219 C 689.445313 235.799316 672.535767 211.769531 642.720703 211.769531 C 612.905762 211.769531 596.439453 235.799316 596.439453 278.074219 C 596.439453 320.349243 612.905762 344.380859 642.720703 344.380859 Z"/>
        <path id="party" fill="#ffffff" fill-rule="evenodd" stroke="none" d="M 1466.350098 700.909973 L 1466.350098 773 L 1546.004883 773 L 1546.004883 700.909973 Z M 1208.25 537.150024 L 1292.800049 758.315002 L 1313.27002 758.315002 L 1308.375 770.330017 C 1303.925049 781.01001 1296.359985 785.460022 1281.22998 785.460022 L 1251.415039 785.460022 L 1251.415039 839.75 L 1296.805054 839.75 C 1333.73999 839.75 1355.545044 825.51001 1367.11499 793.025024 L 1458.784912 537.150024 L 1387.139893 537.150024 L 1334.630005 692.455017 L 1279.89502 537.150024 Z M 1064.959961 483.305054 L 1064.959961 537.150024 L 1024.910034 537.150024 L 1024.910034 592.775024 L 1064.959961 592.775024 L 1064.959961 690.674988 C 1064.959961 746.299988 1093.439941 773 1148.175049 773 L 1204.689941 773 L 1204.689941 716.929993 L 1167.310059 716.929993 C 1151.290039 716.929993 1142.390015 707.585022 1142.390015 690.674988 L 1142.390015 592.775024 L 1203.800049 592.775024 L 1203.800049 537.150024 L 1142.390015 537.150024 L 1142.390015 483.305054 Z M 859.814941 537.150024 L 859.814941 773 L 937.244995 773 L 937.244995 645.284973 C 937.244995 610.130005 952.819946 593.219971 992.425049 593.219971 L 1014.22998 593.219971 L 1014.22998 537.150024 L 992.869995 537.150024 C 963.5 537.150024 945.255005 553.61499 935.910034 585.210022 L 934.574951 537.150024 Z M 588.810059 611.465027 L 666.23999 615.025024 C 670.244995 590.549988 682.704956 578.534973 703.175049 578.534973 C 727.204956 578.534973 738.329956 593.664978 738.329956 626.150024 L 675.140015 639.054993 C 616.400024 650.625 585.25 668.424988 585.25 710.700012 C 585.25 752.530029 621.73999 778.340027 669.800049 778.340027 C 714.744995 778.340027 741.890015 762.765015 753.905029 737.400024 C 762.359985 782.789978 817.094971 774.335022 829.109985 773.890015 L 839.790039 773 L 839.790039 722.715027 L 831.780029 722.715027 C 823.77002 722.715027 816.650024 720.044983 816.650024 702.690002 L 816.650024 635.940002 C 816.650024 566.52002 778.824951 531.809998 703.175049 531.809998 C 637.314941 531.809998 598.155029 559.400024 588.810059 611.465027 Z M 664.459961 707.585022 C 664.459961 686.669983 681.369995 681.775024 706.290039 676.880005 L 739.665039 670.650024 L 739.665039 673.320007 C 739.665039 711.590027 721.86499 731.169983 696.055054 731.169983 C 675.584961 731.169983 664.459961 720.934998 664.459961 707.585022 Z M 321.36499 839.75 L 398.795044 839.75 L 398.795044 739.179993 C 413.035034 764.544983 436.619995 778.340027 466.880005 778.340027 C 532.295044 778.340027 567.449951 725.830017 567.449951 655.075012 C 567.449951 584.320007 532.295044 531.809998 466.880005 531.809998 C 435.285034 531.809998 411.255005 546.049988 397.905029 571.859985 L 396.569946 537.150024 L 321.36499 537.150024 Z M 394.344971 655.075012 C 394.344971 619.030029 409.920044 588.325012 441.515015 588.325012 C 472.219971 588.325012 488.23999 618.585022 488.23999 655.075012 C 488.23999 692.01001 473.109985 721.825012 441.515015 721.825012 C 410.36499 721.825012 394.344971 692.01001 394.344971 655.075012 Z"/>
    </g>
</svg>
