<?xml version="1.0" encoding="UTF-8"?>
<!-- Generated by Pixelmator Pro 3.5.7 -->
<svg width="3391" height="1383" viewBox="0 0 3391 1383" xmlns="http://www.w3.org/2000/svg">
    <path id="electing-the-next-generation" fill="#ffffff" fill-rule="evenodd" stroke="none" d="M 2258.132813 615.625 C 2228.900635 615.625 2206.97583 600.25238 2200.171875 577.068359 L 2227.388672 575.304688 C 2232.428711 586.644653 2243.012695 593.447266 2258.384766 593.447266 C 2280.056641 593.447266 2293.160156 583.872559 2293.160156 565.476563 L 2293.160156 545.820313 C 2285.348145 560.436279 2270.479248 567.996094 2256.367188 567.996094 C 2219.827148 567.996094 2196.644531 541.283691 2196.644531 503.484375 C 2196.644531 465.433044 2220.583252 438.216797 2256.367188 438.216797 C 2273.755371 438.216797 2288.120117 447.540283 2294.167969 461.904297 L 2294.167969 441.240234 L 2319.367188 441.240234 L 2319.367188 560.939453 C 2319.367188 596.21875 2294.420654 615.625 2258.132813 615.625 Z M 1853.419922 577.824219 C 1815.115967 577.824219 1790.167969 550.606812 1790.167969 508.019531 C 1790.167969 465.43219 1815.115967 438.216797 1853.419922 438.216797 C 1884.667969 438.216797 1911.884521 458.880493 1913.396484 506.507813 L 1913.648438 515.580078 L 1817.636719 515.580078 C 1819.652832 540.528076 1832.251953 555.144531 1853.419922 555.144531 C 1866.775879 555.144531 1878.620117 547.584412 1884.164063 534.732422 L 1911.632813 536.748047 C 1903.820801 561.948059 1880.384033 577.824219 1853.419922 577.824219 Z M 2404.292969 577.824219 C 2365.989014 577.824219 2341.039063 550.606812 2341.039063 508.019531 C 2341.039063 465.43219 2365.989014 438.216797 2404.292969 438.216797 C 2435.541016 438.216797 2462.755615 458.880493 2464.267578 506.507813 L 2464.519531 515.580078 L 2368.507813 515.580078 C 2370.523682 540.528076 2383.125 555.144531 2404.292969 555.144531 C 2417.648926 555.144531 2429.491211 547.584412 2435.035156 534.732422 L 2462.503906 536.748047 C 2454.691895 561.948059 2431.25708 577.824219 2404.292969 577.824219 Z M 2674.6875 577.824219 C 2636.383545 577.824219 2611.435547 550.606812 2611.435547 508.019531 C 2611.435547 465.43219 2636.383545 438.216797 2674.6875 438.216797 C 2705.935547 438.216797 2733.1521 458.880493 2734.664063 506.507813 L 2734.916016 515.580078 L 2638.904297 515.580078 C 2640.920166 540.528076 2653.519531 555.144531 2674.6875 555.144531 C 2688.043457 555.144531 2699.887695 547.584412 2705.431641 534.732422 L 2732.900391 536.748047 C 2725.088379 561.948059 2701.651611 577.824219 2674.6875 577.824219 Z M 2880.068359 577.824219 C 2853.356201 577.824219 2831.935547 563.711487 2831.935547 539.771484 C 2831.935547 512.807495 2851.843994 505.247192 2882.335938 499.451172 L 2920.640625 491.892578 C 2920.388672 470.472595 2910.560303 460.140625 2890.904297 460.140625 C 2875.280273 460.140625 2864.947998 467.952271 2861.167969 482.820313 L 2834.203125 481.056641 C 2839.495117 454.344666 2860.664307 438.216797 2890.904297 438.216797 C 2927.192139 438.216797 2946.847656 458.376709 2946.847656 494.664063 L 2946.847656 545.064453 C 2946.847656 551.364502 2949.620117 553.632813 2954.912109 553.632813 L 2960.457031 553.632813 L 2960.457031 574.800781 L 2951.636719 574.800781 C 2939.540771 575.052795 2923.664307 572.532654 2922.65625 554.388672 C 2916.860352 566.988647 2901.992188 577.824219 2880.068359 577.824219 Z M 3172.388672 577.824219 C 3134.084717 577.824219 3109.136719 550.606812 3109.136719 508.019531 C 3109.136719 465.43219 3134.084717 438.216797 3172.388672 438.216797 C 3210.692627 438.216797 3235.640625 465.43219 3235.640625 508.019531 C 3235.640625 550.606812 3210.692627 577.824219 3172.388672 577.824219 Z M 1663.160156 574.800781 L 1663.160156 441.240234 L 1686.847656 441.240234 L 1687.603516 463.919922 C 1694.659546 446.027954 1710.031738 438.216797 1728.427734 438.216797 C 1758.415771 438.216797 1773.535156 459.887207 1773.535156 488.867188 L 1773.535156 574.800781 L 1747.328125 574.800781 L 1747.328125 496.679688 C 1747.328125 473.243713 1740.272949 460.392578 1721.625 460.392578 C 1701.716919 460.392578 1689.367188 473.243713 1689.367188 496.679688 L 1689.367188 574.800781 L 1663.160156 574.800781 Z M 1913.144531 574.800781 L 1961.779297 506.507813 L 1915.412109 441.240234 L 1945.904297 441.240234 L 1977.65625 487.607422 L 2008.904297 441.240234 L 2039.900391 441.240234 L 1993.53125 506.507813 L 2041.916016 574.800781 L 2011.171875 574.800781 L 1977.65625 525.408203 L 1943.888672 574.800781 L 1913.144531 574.800781 Z M 2112.728516 574.800781 C 2087.024414 574.800781 2073.164063 561.444031 2073.164063 536.748047 L 2073.164063 462.912109 L 2053.003906 462.912109 L 2053.003906 441.240234 L 2073.164063 441.240234 L 2073.164063 411 L 2099.371094 411 L 2099.371094 441.240234 L 2134.904297 441.240234 L 2134.904297 462.912109 L 2099.371094 462.912109 L 2099.371094 536.748047 C 2099.371094 547.584045 2104.664063 553.128906 2114.996094 553.128906 L 2134.652344 553.128906 L 2134.652344 574.800781 L 2112.728516 574.800781 Z M 2484.427734 574.800781 L 2484.427734 441.240234 L 2508.115234 441.240234 L 2508.871094 463.919922 C 2515.927002 446.027954 2531.299316 438.216797 2549.695313 438.216797 C 2579.68335 438.216797 2594.804688 459.887207 2594.804688 488.867188 L 2594.804688 574.800781 L 2568.595703 574.800781 L 2568.595703 496.679688 C 2568.595703 473.243713 2561.540527 460.392578 2542.892578 460.392578 C 2522.984375 460.392578 2510.636719 473.243713 2510.636719 496.679688 L 2510.636719 574.800781 L 2484.427734 574.800781 Z M 2754.824219 574.800781 L 2754.824219 441.240234 L 2778.763672 441.240234 L 2779.519531 466.439453 C 2783.803467 449.303467 2793.883545 441.240234 2811.271484 441.240234 L 2824.125 441.240234 L 2824.125 462.912109 L 2811.019531 462.912109 C 2790.355469 462.912109 2781.03125 474.251709 2781.03125 496.679688 L 2781.03125 574.800781 L 2754.824219 574.800781 Z M 3020.179688 574.800781 C 2994.47583 574.800781 2980.615234 561.444031 2980.615234 536.748047 L 2980.615234 462.912109 L 2960.457031 462.912109 L 2960.457031 441.240234 L 2980.615234 441.240234 L 2980.615234 411 L 3006.824219 411 L 3006.824219 441.240234 L 3042.355469 441.240234 L 3042.355469 462.912109 L 3006.824219 462.912109 L 3006.824219 536.748047 C 3006.824219 547.584045 3012.115234 553.128906 3022.447266 553.128906 L 3042.103516 553.128906 L 3042.103516 574.800781 L 3020.179688 574.800781 Z M 3061.507813 574.800781 L 3061.507813 441.240234 L 3087.716797 441.240234 L 3087.716797 574.800781 L 3061.507813 574.800781 Z M 3255.548828 574.800781 L 3255.548828 441.240234 L 3279.236328 441.240234 L 3279.992188 463.919922 C 3287.04834 446.027954 3302.42041 438.216797 3320.816406 438.216797 C 3350.804443 438.216797 3365.923828 459.887207 3365.923828 488.867188 L 3365.923828 574.800781 L 3339.716797 574.800781 L 3339.716797 496.679688 C 3339.716797 473.243713 3332.659668 460.392578 3314.011719 460.392578 C 3294.10376 460.392578 3281.755859 473.243713 3281.755859 496.679688 L 3281.755859 574.800781 L 3255.548828 574.800781 Z M 2885.107422 557.160156 C 2905.519531 557.160156 2921.144531 542.796509 2921.144531 513.564453 L 2921.144531 512.304688 L 2892.416016 517.34375 C 2873.768066 520.619751 2859.152344 522.131592 2859.152344 539.267578 C 2859.152344 549.095581 2867.467529 557.160156 2885.107422 557.160156 Z M 3172.388672 554.892578 C 3195.320801 554.892578 3208.423828 537.251526 3208.423828 508.019531 C 3208.423828 478.787476 3195.320801 461.148438 3172.388672 461.148438 C 3149.456787 461.148438 3136.351563 478.787476 3136.351563 508.019531 C 3136.351563 537.251526 3149.456787 554.892578 3172.388672 554.892578 Z M 2258.888672 545.820313 C 2280.308838 545.820313 2293.664063 528.180359 2293.916016 503.484375 C 2294.167969 478.78833 2280.812744 461.148438 2258.888672 461.148438 C 2236.964844 461.148438 2223.859375 478.78833 2223.859375 503.484375 C 2223.859375 528.180359 2237.216797 545.820313 2258.888672 545.820313 Z M 1818.140625 495.419922 L 1885.927734 495.419922 C 1882.399658 469.715942 1868.540039 460.896484 1853.419922 460.896484 C 1833.763916 460.896484 1821.416748 473.747925 1818.140625 495.419922 Z M 2369.011719 495.419922 L 2436.800781 495.419922 C 2433.272705 469.715942 2419.413086 460.896484 2404.292969 460.896484 C 2384.636963 460.896484 2372.287842 473.747925 2369.011719 495.419922 Z M 2639.408203 495.419922 L 2707.195313 495.419922 C 2703.667236 469.715942 2689.807617 460.896484 2674.6875 460.896484 C 2655.031494 460.896484 2642.684326 473.747925 2639.408203 495.419922 Z M 3061.255859 421.332031 L 3061.255859 395.880859 L 3088.472656 395.880859 L 3088.472656 421.332031 L 3061.255859 421.332031 Z M 2461.748047 360.824219 C 2432.516113 360.824219 2410.593018 345.45166 2403.789063 322.267578 L 2431.003906 320.503906 C 2436.043945 331.843872 2446.62793 338.648438 2462 338.648438 C 2483.672119 338.648438 2496.775391 329.071777 2496.775391 310.675781 L 2496.775391 291.019531 C 2488.963623 305.635498 2474.096436 313.195313 2459.984375 313.195313 C 2423.44458 313.195313 2400.259766 286.483643 2400.259766 248.683594 C 2400.259766 210.631592 2424.200439 183.416016 2459.984375 183.416016 C 2477.372559 183.416016 2491.735352 192.739502 2497.783203 207.103516 L 2497.783203 186.439453 L 2522.984375 186.439453 L 2522.984375 306.140625 C 2522.984375 341.420654 2498.035889 360.824219 2461.748047 360.824219 Z M 1717.591797 323.023438 C 1679.28772 323.023438 1654.339844 295.808716 1654.339844 253.220703 C 1654.339844 210.63269 1679.28772 183.416016 1717.591797 183.416016 C 1748.839722 183.416016 1776.056396 204.078979 1777.568359 251.707031 L 1777.820313 260.779297 L 1681.808594 260.779297 C 1683.824585 285.727295 1696.423706 300.34375 1717.591797 300.34375 C 1730.947754 300.34375 1742.79187 292.783691 1748.335938 279.931641 L 1775.804688 281.947266 C 1767.992676 307.147217 1744.555786 323.023438 1717.591797 323.023438 Z M 1918.183594 323.023438 C 1879.879395 323.023438 1854.931641 295.808716 1854.931641 253.220703 C 1854.931641 210.63269 1879.879395 183.416016 1918.183594 183.416016 C 1949.431396 183.416016 1976.648193 204.078979 1978.160156 251.707031 L 1978.412109 260.779297 L 1882.400391 260.779297 C 1884.416504 285.727295 1897.015625 300.34375 1918.183594 300.34375 C 1931.539551 300.34375 1943.383789 292.783691 1948.927734 279.931641 L 1976.396484 281.947266 C 1968.584473 307.147217 1945.147461 323.023438 1918.183594 323.023438 Z M 2054.263672 323.023438 C 2015.959717 323.023438 1991.011719 295.808716 1991.011719 253.220703 C 1991.011719 210.63269 2015.959717 183.416016 2054.263672 183.416016 C 2083.49585 183.416016 2108.948486 201.560913 2112.476563 231.548828 L 2085.259766 233.060547 C 2082.739746 216.176514 2069.383789 206.347656 2054.263672 206.347656 C 2031.331787 206.347656 2018.228516 223.98877 2018.228516 253.220703 C 2018.228516 282.452759 2031.331787 300.091797 2054.263672 300.091797 C 2070.139648 300.091797 2083.495605 289.759277 2086.267578 271.111328 L 2113.736328 272.625 C 2109.452148 303.872925 2084.503662 323.023438 2054.263672 323.023438 Z M 2889.896484 323.023438 C 2851.592529 323.023438 2826.644531 295.808716 2826.644531 253.220703 C 2826.644531 210.63269 2851.592529 183.416016 2889.896484 183.416016 C 2921.144531 183.416016 2948.359131 204.078979 2949.871094 251.707031 L 2950.125 260.779297 L 2854.111328 260.779297 C 2856.127197 285.727295 2868.728516 300.34375 2889.896484 300.34375 C 2903.252441 300.34375 2915.09668 292.783691 2920.640625 279.931641 L 2948.107422 281.947266 C 2940.29541 307.147217 2916.860596 323.023438 2889.896484 323.023438 Z M 1829.732422 320 C 1812.092529 320 1800.5 308.659668 1800.5 290.767578 L 1800.5 141.080078 L 1826.707031 141.080078 L 1826.707031 289.507813 C 1826.707031 295.555786 1829.479492 298.328125 1835.275391 298.328125 L 1846.363281 298.328125 L 1846.363281 320 L 1829.732422 320 Z M 2178.751953 320 C 2153.048096 320 2139.1875 306.643311 2139.1875 281.947266 L 2139.1875 208.111328 L 2119.027344 208.111328 L 2119.027344 186.439453 L 2139.1875 186.439453 L 2139.1875 156.199219 L 2165.396484 156.199219 L 2165.396484 186.439453 L 2200.927734 186.439453 L 2200.927734 208.111328 L 2165.396484 208.111328 L 2165.396484 281.947266 C 2165.396484 292.783325 2170.6875 298.328125 2181.019531 298.328125 L 2200.675781 298.328125 L 2200.675781 320 L 2178.751953 320 Z M 2220.080078 320 L 2220.080078 186.439453 L 2246.289063 186.439453 L 2246.289063 320 L 2220.080078 320 Z M 2273.251953 320 L 2273.251953 186.439453 L 2296.939453 186.439453 L 2297.695313 209.119141 C 2304.751221 191.227173 2320.123535 183.416016 2338.519531 183.416016 C 2368.507568 183.416016 2383.628906 205.088379 2383.628906 234.068359 L 2383.628906 320 L 2357.419922 320 L 2357.419922 241.880859 C 2357.419922 218.444824 2350.364746 205.591797 2331.716797 205.591797 C 2311.808838 205.591797 2299.460938 218.444824 2299.460938 241.880859 L 2299.460938 320 L 2273.251953 320 Z M 2658.308594 320 C 2632.604492 320 2618.744141 306.643311 2618.744141 281.947266 L 2618.744141 208.111328 L 2598.583984 208.111328 L 2598.583984 186.439453 L 2618.744141 186.439453 L 2618.744141 156.199219 L 2644.951172 156.199219 L 2644.951172 186.439453 L 2680.484375 186.439453 L 2680.484375 208.111328 L 2644.951172 208.111328 L 2644.951172 281.947266 C 2644.951172 292.783325 2650.244141 298.328125 2660.576172 298.328125 L 2680.232422 298.328125 L 2680.232422 320 L 2658.308594 320 Z M 2699.636719 320 L 2699.636719 141.080078 L 2725.84375 141.080078 L 2725.84375 204.332031 C 2733.655762 189.715942 2748.776123 183.416016 2765.15625 183.416016 C 2795.144287 183.416016 2810.011719 205.592407 2810.011719 234.068359 L 2810.011719 320 L 2783.804688 320 L 2783.804688 243.140625 C 2783.804688 219.70459 2776.747559 206.851563 2758.099609 206.851563 C 2738.191406 206.851563 2725.84375 219.70459 2725.84375 243.140625 L 2725.84375 320 L 2699.636719 320 Z M 2462.503906 291.019531 C 2483.924072 291.019531 2497.279297 273.379639 2497.53125 248.683594 C 2497.783203 223.987671 2484.427979 206.347656 2462.503906 206.347656 C 2440.580078 206.347656 2427.476563 223.987671 2427.476563 248.683594 C 2427.476563 273.379639 2440.832031 291.019531 2462.503906 291.019531 Z M 1682.3125 240.619141 L 1750.099609 240.619141 C 1746.571655 214.915161 1732.711792 206.095703 1717.591797 206.095703 C 1697.935791 206.095703 1685.588501 218.947144 1682.3125 240.619141 Z M 1882.904297 240.619141 L 1950.691406 240.619141 C 1947.163574 214.915161 1933.303467 206.095703 1918.183594 206.095703 C 1898.527588 206.095703 1886.180176 218.947144 1882.904297 240.619141 Z M 2854.615234 240.619141 L 2922.404297 240.619141 C 2918.876221 214.915161 2905.016602 206.095703 2889.896484 206.095703 C 2870.240479 206.095703 2857.891357 218.947144 2854.615234 240.619141 Z M 2219.828125 166.53125 L 2219.828125 141.080078 L 2247.042969 141.080078 L 2247.042969 166.53125 L 2219.828125 166.53125 Z"/>
    <path id="a-brighter-booming-Britain-is-possible-website--electoral-commission-certification-coming-soon" fill="#ffffff" fill-rule="evenodd" stroke="none" opacity="0.5" d="M 3038.574219 1382.769531 C 3022.914307 1382.769531 3011.17041 1374.53479 3007.525391 1362.115234 L 3022.105469 1361.169922 C 3024.80542 1367.244751 3030.476074 1370.890625 3038.710938 1370.890625 C 3050.321045 1370.890625 3057.339844 1365.759033 3057.339844 1355.904297 L 3057.339844 1345.375 C 3053.154785 1353.204712 3045.188965 1357.255859 3037.628906 1357.255859 C 3018.053955 1357.255859 3005.634766 1342.944702 3005.634766 1322.695313 C 3005.634766 1302.311035 3018.458984 1287.730469 3037.628906 1287.730469 C 3046.944092 1287.730469 3054.638916 1292.72522 3057.878906 1300.419922 L 3057.878906 1289.349609 L 3071.378906 1289.349609 L 3071.378906 1353.474609 C 3071.378906 1372.374023 3058.01416 1382.769531 3038.574219 1382.769531 Z M 139.449219 1362.519531 C 118.929955 1362.519531 105.564453 1347.939209 105.564453 1325.125 C 105.564453 1302.310791 118.929955 1287.730469 139.449219 1287.730469 C 156.188705 1287.730469 170.770081 1298.800171 171.580078 1324.314453 L 171.714844 1329.175781 L 120.279297 1329.175781 C 121.359283 1342.540283 128.109695 1350.369141 139.449219 1350.369141 C 146.604218 1350.369141 152.949921 1346.320313 155.919922 1339.435547 L 170.634766 1340.515625 C 166.449768 1354.015137 153.893692 1362.519531 139.449219 1362.519531 Z M 216.535156 1362.519531 C 205.735641 1362.519531 198.174744 1358.199951 194.259766 1350.910156 L 193.855469 1360.900391 L 180.759766 1360.900391 L 180.759766 1265.050781 L 194.800781 1265.050781 L 194.800781 1298.664063 C 198.985779 1291.509277 206.27565 1287.730469 216.535156 1287.730469 C 237.054642 1287.730469 246.775391 1305.145752 246.775391 1325.125 C 246.775391 1345.10437 237.054642 1362.519531 216.535156 1362.519531 Z M 285.789063 1362.519531 C 267.700104 1362.519531 254.605347 1353.204956 253.525391 1338.355469 L 267.970703 1337.410156 C 269.32074 1345.509888 275.664246 1350.505859 285.654297 1350.505859 C 291.999268 1350.505859 300.234375 1348.345215 300.234375 1341.730469 C 300.099365 1333.900757 291.054626 1332.954224 283.224609 1331.199219 C 268.374634 1327.959351 255.279297 1324.044922 255.279297 1310.275391 C 255.279297 1296.37085 266.485931 1287.730469 284.169922 1287.730469 C 299.424927 1287.730469 311.304626 1296.774658 313.599609 1310.949219 L 299.154297 1311.759766 C 297.66925 1304.200073 290.380066 1299.609375 282.955078 1299.609375 C 275.665039 1299.609375 269.724365 1303.389648 269.859375 1309.734375 C 269.859375 1316.214111 278.364258 1318.915649 285.654297 1320.265625 C 303.203278 1323.505493 314.814453 1328.22998 314.814453 1342.269531 C 314.814453 1356.309082 300.504089 1362.519531 285.789063 1362.519531 Z M 428.214844 1362.519531 C 407.695831 1362.519531 394.330078 1347.939209 394.330078 1325.125 C 394.330078 1302.310791 407.695831 1287.730469 428.214844 1287.730469 C 444.953827 1287.730469 459.535706 1298.800171 460.345703 1324.314453 L 460.480469 1329.175781 L 409.044922 1329.175781 C 410.124939 1342.540283 416.874817 1350.369141 428.214844 1350.369141 C 435.369812 1350.369141 441.715576 1346.320313 444.685547 1339.435547 L 459.400391 1340.515625 C 455.215393 1354.015137 442.65979 1362.519531 428.214844 1362.519531 Z M 530.679688 1362.519531 C 509.350677 1362.519531 495.039063 1352.934204 495.039063 1335.384766 C 495.039063 1324.180176 500.035278 1317.430298 512.320313 1309.060547 C 512.860291 1308.790527 513.53418 1308.385498 514.074219 1307.980469 C 507.594177 1300.015747 504.894531 1292.454834 504.894531 1285.705078 C 504.894531 1271.39563 517.045593 1261.945557 530.140625 1262.890625 C 544.315613 1263.970581 555.925232 1276.255371 551.740234 1290.294922 C 549.580261 1297.719727 543.235596 1305.009644 533.515625 1310.814453 L 553.494141 1336.195313 C 556.464172 1332.145386 557.545593 1324.179443 557.140625 1317.429688 L 571.720703 1318.644531 C 571.585754 1329.444214 567.93927 1340.244873 562.404297 1346.724609 L 574.419922 1360.900391 L 557.679688 1360.900391 L 553.224609 1355.5 C 547.824646 1359.954834 539.589722 1362.519531 530.679688 1362.519531 Z M 640.164063 1362.519531 C 619.644104 1362.519531 606.279297 1347.939209 606.279297 1325.125 C 606.279297 1302.310791 619.644104 1287.730469 640.164063 1287.730469 C 656.904114 1287.730469 671.484924 1298.800171 672.294922 1324.314453 L 672.429688 1329.175781 L 620.994141 1329.175781 C 622.074158 1342.540283 628.824097 1350.369141 640.164063 1350.369141 C 647.319092 1350.369141 653.664734 1346.320313 656.634766 1339.435547 L 671.349609 1340.515625 C 667.164612 1354.015137 654.60907 1362.519531 640.164063 1362.519531 Z M 747.625 1362.519531 C 727.10498 1362.519531 713.740234 1347.939209 713.740234 1325.125 C 713.740234 1302.310791 727.10498 1287.730469 747.625 1287.730469 C 764.36499 1287.730469 778.945801 1298.800171 779.755859 1324.314453 L 779.890625 1329.175781 L 728.455078 1329.175781 C 729.535034 1342.540283 736.284973 1350.369141 747.625 1350.369141 C 754.780029 1350.369141 761.125732 1346.320313 764.095703 1339.435547 L 778.810547 1340.515625 C 774.625488 1354.015137 762.069946 1362.519531 747.625 1362.519531 Z M 820.525391 1362.519531 C 800.005371 1362.519531 786.640625 1347.939209 786.640625 1325.125 C 786.640625 1302.310791 800.005371 1287.730469 820.525391 1287.730469 C 836.185425 1287.730469 849.820923 1297.451172 851.710938 1313.515625 L 837.130859 1314.324219 C 835.780884 1305.279419 828.625366 1300.015625 820.525391 1300.015625 C 808.240356 1300.015625 801.220703 1309.465454 801.220703 1325.125 C 801.220703 1340.784546 808.240356 1350.234375 820.525391 1350.234375 C 829.030396 1350.234375 836.184937 1344.700562 837.669922 1334.710938 L 852.384766 1335.519531 C 850.089722 1352.258911 836.725342 1362.519531 820.525391 1362.519531 Z M 935.949219 1362.519531 C 915.429321 1362.519531 902.064453 1347.939209 902.064453 1325.125 C 902.064453 1302.310791 915.429321 1287.730469 935.949219 1287.730469 C 956.469238 1287.730469 969.835938 1302.310791 969.835938 1325.125 C 969.835938 1347.939209 956.469238 1362.519531 935.949219 1362.519531 Z M 1047.595703 1362.519531 C 1033.285767 1362.519531 1021.810547 1354.959351 1021.810547 1342.134766 C 1021.810547 1327.690308 1032.475464 1323.640015 1048.810547 1320.535156 L 1069.330078 1316.484375 C 1069.195068 1305.009888 1063.93042 1299.474609 1053.400391 1299.474609 C 1045.030396 1299.474609 1039.495728 1303.660278 1037.470703 1311.625 L 1023.025391 1310.679688 C 1025.860352 1296.370239 1037.200317 1287.730469 1053.400391 1287.730469 C 1072.840332 1287.730469 1083.369141 1298.531494 1083.369141 1317.970703 L 1083.369141 1344.970703 C 1083.369141 1348.345581 1084.854492 1349.560547 1087.689453 1349.560547 L 1090.660156 1349.560547 L 1090.660156 1360.900391 L 1085.935547 1360.900391 C 1079.455444 1361.0354 1070.950073 1359.68457 1070.410156 1349.964844 C 1067.305176 1356.7146 1059.340698 1362.519531 1047.595703 1362.519531 Z M 1192.990234 1362.519531 C 1172.470215 1362.519531 1159.105469 1347.939209 1159.105469 1325.125 C 1159.105469 1302.310791 1172.470215 1287.730469 1192.990234 1287.730469 C 1208.650269 1287.730469 1222.285767 1297.451172 1224.175781 1313.515625 L 1209.595703 1314.324219 C 1208.245728 1305.279419 1201.09021 1300.015625 1192.990234 1300.015625 C 1180.7052 1300.015625 1173.685547 1309.465454 1173.685547 1325.125 C 1173.685547 1340.784546 1180.7052 1350.234375 1192.990234 1350.234375 C 1201.495239 1350.234375 1208.64978 1344.700562 1210.134766 1334.710938 L 1224.849609 1335.519531 C 1222.554688 1352.258911 1209.190186 1362.519531 1192.990234 1362.519531 Z M 1264.134766 1362.519531 C 1243.614746 1362.519531 1230.25 1347.939209 1230.25 1325.125 C 1230.25 1302.310791 1243.614746 1287.730469 1264.134766 1287.730469 C 1284.654785 1287.730469 1298.019531 1302.310791 1298.019531 1325.125 C 1298.019531 1347.939209 1284.654785 1362.519531 1264.134766 1362.519531 Z M 1590.025391 1362.519531 C 1571.935425 1362.519531 1558.839722 1353.204956 1557.759766 1338.355469 L 1572.205078 1337.410156 C 1573.555176 1345.509888 1579.900635 1350.505859 1589.890625 1350.505859 C 1596.235596 1350.505859 1604.470703 1348.345215 1604.470703 1341.730469 C 1604.335693 1333.900757 1595.291016 1332.954224 1587.460938 1331.199219 C 1572.610962 1327.959351 1559.515625 1324.044922 1559.515625 1310.275391 C 1559.515625 1296.37085 1570.719238 1287.730469 1588.404297 1287.730469 C 1603.659302 1287.730469 1615.541016 1296.774658 1617.835938 1310.949219 L 1603.390625 1311.759766 C 1601.90564 1304.200073 1594.614502 1299.609375 1587.189453 1299.609375 C 1579.899536 1299.609375 1573.960693 1303.389648 1574.095703 1309.734375 C 1574.095703 1316.214111 1582.600586 1318.915649 1589.890625 1320.265625 C 1607.440552 1323.505493 1619.050781 1328.22998 1619.050781 1342.269531 C 1619.050781 1356.309082 1604.740356 1362.519531 1590.025391 1362.519531 Z M 1658.064453 1362.519531 C 1639.974487 1362.519531 1626.880737 1353.204956 1625.800781 1338.355469 L 1640.244141 1337.410156 C 1641.594116 1345.509888 1647.939575 1350.505859 1657.929688 1350.505859 C 1664.274658 1350.505859 1672.509766 1348.345215 1672.509766 1341.730469 C 1672.374756 1333.900757 1663.329956 1332.954224 1655.5 1331.199219 C 1640.650024 1327.959351 1627.554688 1324.044922 1627.554688 1310.275391 C 1627.554688 1296.37085 1638.760376 1287.730469 1656.445313 1287.730469 C 1671.700317 1287.730469 1683.579956 1296.774658 1685.875 1310.949219 L 1671.429688 1311.759766 C 1669.94458 1304.200073 1662.655518 1299.609375 1655.230469 1299.609375 C 1647.94043 1299.609375 1641.999756 1303.389648 1642.134766 1309.734375 C 1642.134766 1316.214111 1650.639648 1318.915649 1657.929688 1320.265625 C 1675.479614 1323.505493 1687.089844 1328.22998 1687.089844 1342.269531 C 1687.089844 1356.309082 1672.779541 1362.519531 1658.064453 1362.519531 Z M 1757.154297 1362.519531 C 1736.634277 1362.519531 1723.269531 1347.939209 1723.269531 1325.125 C 1723.269531 1302.310791 1736.634277 1287.730469 1757.154297 1287.730469 C 1777.674316 1287.730469 1791.039063 1302.310791 1791.039063 1325.125 C 1791.039063 1347.939209 1777.674316 1362.519531 1757.154297 1362.519531 Z M 1933.060547 1362.519531 C 1912.540527 1362.519531 1899.175781 1347.939209 1899.175781 1325.125 C 1899.175781 1302.310791 1912.540527 1287.730469 1933.060547 1287.730469 C 1948.720459 1287.730469 1962.355957 1297.451172 1964.246094 1313.515625 L 1949.664063 1314.324219 C 1948.313965 1305.279419 1941.1604 1300.015625 1933.060547 1300.015625 C 1920.775391 1300.015625 1913.753906 1309.465454 1913.753906 1325.125 C 1913.753906 1340.784546 1920.775391 1350.234375 1933.060547 1350.234375 C 1941.56543 1350.234375 1948.719971 1344.700562 1950.205078 1334.710938 L 1964.919922 1335.519531 C 1962.625 1352.258911 1949.260498 1362.519531 1933.060547 1362.519531 Z M 2004.205078 1362.519531 C 1983.685059 1362.519531 1970.320313 1347.939209 1970.320313 1325.125 C 1970.320313 1302.310791 1983.685059 1287.730469 2004.205078 1287.730469 C 2020.945068 1287.730469 2035.525879 1298.800171 2036.335938 1324.314453 L 2036.470703 1329.175781 L 1985.035156 1329.175781 C 1986.115234 1342.540283 1992.86499 1350.369141 2004.205078 1350.369141 C 2011.360107 1350.369141 2017.705811 1346.320313 2020.675781 1339.435547 L 2035.390625 1340.515625 C 2031.205811 1354.015137 2018.649902 1362.519531 2004.205078 1362.519531 Z M 2285.275391 1362.519531 C 2264.755371 1362.519531 2251.390625 1347.939209 2251.390625 1325.125 C 2251.390625 1302.310791 2264.755371 1287.730469 2285.275391 1287.730469 C 2300.935547 1287.730469 2314.571045 1297.451172 2316.460938 1313.515625 L 2301.878906 1314.324219 C 2300.529053 1305.279419 2293.375488 1300.015625 2285.275391 1300.015625 C 2272.990479 1300.015625 2265.970703 1309.465454 2265.970703 1325.125 C 2265.970703 1340.784546 2272.990479 1350.234375 2285.275391 1350.234375 C 2293.780518 1350.234375 2300.935059 1344.700562 2302.419922 1334.710938 L 2317.134766 1335.519531 C 2314.839844 1352.258911 2301.475586 1362.519531 2285.275391 1362.519531 Z M 2349.128906 1362.519531 C 2334.819092 1362.519531 2323.345703 1354.959351 2323.345703 1342.134766 C 2323.345703 1327.690308 2334.010742 1323.640015 2350.345703 1320.535156 L 2370.865234 1316.484375 C 2370.730225 1305.009888 2365.465576 1299.474609 2354.935547 1299.474609 C 2346.56543 1299.474609 2341.029053 1303.660278 2339.003906 1311.625 L 2324.560547 1310.679688 C 2327.395508 1296.370239 2338.735596 1287.730469 2354.935547 1287.730469 C 2374.375488 1287.730469 2384.904297 1298.531494 2384.904297 1317.970703 L 2384.904297 1344.970703 C 2384.904297 1348.345581 2386.389404 1349.560547 2389.224609 1349.560547 L 2392.195313 1349.560547 L 2392.195313 1360.900391 L 2387.470703 1360.900391 C 2380.990723 1361.0354 2372.485352 1359.68457 2371.945313 1349.964844 C 2368.840332 1356.7146 2360.874023 1362.519531 2349.128906 1362.519531 Z M 2505.730469 1362.519531 C 2485.210449 1362.519531 2471.845703 1347.939209 2471.845703 1325.125 C 2471.845703 1302.310791 2485.210449 1287.730469 2505.730469 1287.730469 C 2526.250488 1287.730469 2539.615234 1302.310791 2539.615234 1325.125 C 2539.615234 1347.939209 2526.250488 1362.519531 2505.730469 1362.519531 Z M 2681.634766 1362.519531 C 2661.114746 1362.519531 2647.75 1347.939209 2647.75 1325.125 C 2647.75 1302.310791 2661.114746 1287.730469 2681.634766 1287.730469 C 2697.294678 1287.730469 2710.930176 1297.451172 2712.820313 1313.515625 L 2698.240234 1314.324219 C 2696.890137 1305.279419 2689.734863 1300.015625 2681.634766 1300.015625 C 2669.349854 1300.015625 2662.330078 1309.465454 2662.330078 1325.125 C 2662.330078 1340.784546 2669.349854 1350.234375 2681.634766 1350.234375 C 2690.139648 1350.234375 2697.294189 1344.700562 2698.779297 1334.710938 L 2713.496094 1335.519531 C 2711.200928 1352.258911 2697.834717 1362.519531 2681.634766 1362.519531 Z M 2752.779297 1362.519531 C 2732.259277 1362.519531 2718.894531 1347.939209 2718.894531 1325.125 C 2718.894531 1302.310791 2732.259277 1287.730469 2752.779297 1287.730469 C 2773.299316 1287.730469 2786.664063 1302.310791 2786.664063 1325.125 C 2786.664063 1347.939209 2773.299316 1362.519531 2752.779297 1362.519531 Z M 3142.794922 1362.519531 C 3124.705078 1362.519531 3111.609375 1353.204956 3110.529297 1338.355469 L 3124.974609 1337.410156 C 3126.324463 1345.509888 3132.670166 1350.505859 3142.660156 1350.505859 C 3149.005127 1350.505859 3157.240234 1348.345215 3157.240234 1341.730469 C 3157.105225 1333.900757 3148.060547 1332.954224 3140.230469 1331.199219 C 3125.380371 1327.959351 3112.285156 1324.044922 3112.285156 1310.275391 C 3112.285156 1296.37085 3123.490723 1287.730469 3141.175781 1287.730469 C 3156.430664 1287.730469 3168.310547 1296.774658 3170.605469 1310.949219 L 3156.160156 1311.759766 C 3154.675293 1304.200073 3147.385986 1299.609375 3139.960938 1299.609375 C 3132.670898 1299.609375 3126.730225 1303.389648 3126.865234 1309.734375 C 3126.865234 1316.214111 3135.370361 1318.915649 3142.660156 1320.265625 C 3160.210205 1323.505493 3171.820313 1328.22998 3171.820313 1342.269531 C 3171.820313 1356.309082 3157.51001 1362.519531 3142.794922 1362.519531 Z M 3212.455078 1362.519531 C 3191.935059 1362.519531 3178.570313 1347.939209 3178.570313 1325.125 C 3178.570313 1302.310791 3191.935059 1287.730469 3212.455078 1287.730469 C 3232.975098 1287.730469 3246.339844 1302.310791 3246.339844 1325.125 C 3246.339844 1347.939209 3232.975098 1362.519531 3212.455078 1362.519531 Z M 3286.974609 1362.519531 C 3266.45459 1362.519531 3253.089844 1347.939209 3253.089844 1325.125 C 3253.089844 1302.310791 3266.45459 1287.730469 3286.974609 1287.730469 C 3307.494629 1287.730469 3320.859375 1302.310791 3320.859375 1325.125 C 3320.859375 1347.939209 3307.494629 1362.519531 3286.974609 1362.519531 Z M 21.460938 1360.900391 L -0.410156 1289.349609 L 13.900391 1289.349609 L 29.830078 1345.105469 L 45.759766 1289.349609 L 59.259766 1289.349609 L 75.324219 1345.105469 L 91.119141 1289.349609 L 105.564453 1289.349609 L 83.560547 1360.900391 L 67.630859 1360.900391 L 52.509766 1309.464844 L 37.390625 1360.900391 L 21.460938 1360.900391 Z M 325.480469 1360.900391 L 325.480469 1289.349609 L 339.519531 1289.349609 L 339.519531 1360.900391 L 325.480469 1360.900391 Z M 379.480469 1360.900391 C 365.71051 1360.900391 358.285156 1353.745239 358.285156 1340.515625 L 358.285156 1300.960938 L 347.484375 1300.960938 L 347.484375 1289.349609 L 358.285156 1289.349609 L 358.285156 1273.150391 L 372.324219 1273.150391 L 372.324219 1289.349609 L 391.359375 1289.349609 L 391.359375 1300.960938 L 372.324219 1300.960938 L 372.324219 1340.515625 C 372.324219 1346.320313 375.160278 1349.289063 380.695313 1349.289063 L 391.224609 1349.289063 L 391.224609 1360.900391 L 379.480469 1360.900391 Z M 700.240234 1360.900391 C 690.790222 1360.900391 684.580078 1354.824951 684.580078 1345.240234 L 684.580078 1265.050781 L 698.619141 1265.050781 L 698.619141 1344.564453 C 698.619141 1347.804321 700.105896 1349.289063 703.210938 1349.289063 L 709.150391 1349.289063 L 709.150391 1360.900391 L 700.240234 1360.900391 Z M 887.214844 1360.900391 C 873.444824 1360.900391 866.019531 1353.745239 866.019531 1340.515625 L 866.019531 1300.960938 L 855.220703 1300.960938 L 855.220703 1289.349609 L 866.019531 1289.349609 L 866.019531 1273.150391 L 880.060547 1273.150391 L 880.060547 1289.349609 L 899.095703 1289.349609 L 899.095703 1300.960938 L 880.060547 1300.960938 L 880.060547 1340.515625 C 880.060547 1346.320313 882.894653 1349.289063 888.429688 1349.289063 L 898.960938 1349.289063 L 898.960938 1360.900391 L 887.214844 1360.900391 Z M 980.5 1360.900391 L 980.5 1289.349609 L 993.324219 1289.349609 L 993.730469 1302.849609 C 996.025513 1293.669922 1001.425293 1289.349609 1010.740234 1289.349609 L 1017.625 1289.349609 L 1017.625 1300.960938 L 1010.605469 1300.960938 C 999.535522 1300.960938 994.539063 1307.036255 994.539063 1319.050781 L 994.539063 1360.900391 L 980.5 1360.900391 Z M 1116.849609 1360.900391 C 1107.399658 1360.900391 1101.189453 1354.824951 1101.189453 1345.240234 L 1101.189453 1265.050781 L 1115.230469 1265.050781 L 1115.230469 1344.564453 C 1115.230469 1347.804321 1116.715332 1349.289063 1119.820313 1349.289063 L 1125.759766 1349.289063 L 1125.759766 1360.900391 L 1116.849609 1360.900391 Z M 1308.685547 1360.900391 L 1308.685547 1289.349609 L 1321.375 1289.349609 L 1321.779297 1301.095703 C 1325.289307 1292.590942 1332.578979 1287.730469 1342.164063 1287.730469 C 1352.424072 1287.730469 1359.850098 1293.130371 1362.955078 1302.580078 C 1366.195068 1292.860352 1373.619873 1287.730469 1384.419922 1287.730469 C 1398.999878 1287.730469 1407.640625 1297.450684 1407.640625 1314.865234 L 1407.640625 1360.900391 L 1393.599609 1360.900391 L 1393.599609 1319.050781 C 1393.599609 1306.496338 1389.010132 1299.609375 1380.910156 1299.609375 C 1370.650146 1299.609375 1364.845703 1306.631226 1364.845703 1319.050781 L 1364.845703 1360.900391 L 1351.480469 1360.900391 L 1351.480469 1319.050781 C 1351.480469 1306.766235 1346.889038 1299.609375 1338.789063 1299.609375 C 1328.664063 1299.609375 1322.724609 1306.766235 1322.724609 1319.050781 L 1322.724609 1360.900391 L 1308.685547 1360.900391 Z M 1420.464844 1360.900391 L 1420.464844 1289.349609 L 1433.154297 1289.349609 L 1433.560547 1301.095703 C 1437.070435 1292.590942 1444.360352 1287.730469 1453.945313 1287.730469 C 1464.205322 1287.730469 1471.629395 1293.130371 1474.734375 1302.580078 C 1477.974365 1292.860352 1485.399292 1287.730469 1496.199219 1287.730469 C 1510.779297 1287.730469 1519.419922 1297.450684 1519.419922 1314.865234 L 1519.419922 1360.900391 L 1505.380859 1360.900391 L 1505.380859 1319.050781 C 1505.380859 1306.496338 1500.789551 1299.609375 1492.689453 1299.609375 C 1482.429565 1299.609375 1476.625 1306.631226 1476.625 1319.050781 L 1476.625 1360.900391 L 1463.259766 1360.900391 L 1463.259766 1319.050781 C 1463.259766 1306.766235 1458.67041 1299.609375 1450.570313 1299.609375 C 1440.445313 1299.609375 1434.505859 1306.766235 1434.505859 1319.050781 L 1434.505859 1360.900391 L 1420.464844 1360.900391 Z M 1532.244141 1360.900391 L 1532.244141 1289.349609 L 1546.285156 1289.349609 L 1546.285156 1360.900391 L 1532.244141 1360.900391 Z M 1697.755859 1360.900391 L 1697.755859 1289.349609 L 1711.794922 1289.349609 L 1711.794922 1360.900391 L 1697.755859 1360.900391 Z M 1801.705078 1360.900391 L 1801.705078 1289.349609 L 1814.394531 1289.349609 L 1814.800781 1301.5 C 1818.580811 1291.915283 1826.814941 1287.730469 1836.669922 1287.730469 C 1852.735107 1287.730469 1860.835938 1299.340698 1860.835938 1314.865234 L 1860.835938 1360.900391 L 1846.794922 1360.900391 L 1846.794922 1319.050781 C 1846.794922 1306.496338 1843.015381 1299.609375 1833.025391 1299.609375 C 1822.360596 1299.609375 1815.746094 1306.496338 1815.746094 1319.050781 L 1815.746094 1360.900391 L 1801.705078 1360.900391 Z M 2047.134766 1360.900391 L 2047.134766 1289.349609 L 2059.960938 1289.349609 L 2060.365234 1302.849609 C 2062.660156 1293.669922 2068.060059 1289.349609 2077.375 1289.349609 L 2084.259766 1289.349609 L 2084.259766 1300.960938 L 2077.240234 1300.960938 C 2066.170166 1300.960938 2061.175781 1307.036255 2061.175781 1319.050781 L 2061.175781 1360.900391 L 2047.134766 1360.900391 Z M 2122.464844 1360.900391 C 2108.694824 1360.900391 2101.269531 1353.745239 2101.269531 1340.515625 L 2101.269531 1300.960938 L 2090.470703 1300.960938 L 2090.470703 1289.349609 L 2101.269531 1289.349609 L 2101.269531 1273.150391 L 2115.310547 1273.150391 L 2115.310547 1289.349609 L 2134.345703 1289.349609 L 2134.345703 1300.960938 L 2115.310547 1300.960938 L 2115.310547 1340.515625 C 2115.310547 1346.320313 2118.144775 1349.289063 2123.679688 1349.289063 L 2134.210938 1349.289063 L 2134.210938 1360.900391 L 2122.464844 1360.900391 Z M 2144.605469 1360.900391 L 2144.605469 1289.349609 L 2158.644531 1289.349609 L 2158.644531 1360.900391 L 2144.605469 1360.900391 Z M 2182.134766 1360.900391 L 2182.134766 1301.769531 L 2172.279297 1301.769531 L 2172.279297 1290.160156 L 2182.134766 1290.160156 L 2182.134766 1285.974609 C 2182.134766 1273.015137 2188.615479 1265.050781 2203.060547 1265.050781 L 2215.074219 1265.050781 L 2215.074219 1276.660156 L 2204.003906 1276.660156 C 2199.414063 1276.660156 2196.175781 1280.169922 2196.175781 1285.974609 L 2196.175781 1290.160156 L 2214.128906 1290.160156 L 2214.128906 1301.769531 L 2196.175781 1301.769531 L 2196.175781 1360.900391 L 2182.134766 1360.900391 Z M 2225.875 1360.900391 L 2225.875 1289.349609 L 2239.914063 1289.349609 L 2239.914063 1360.900391 L 2225.875 1360.900391 Z M 2424.189453 1360.900391 C 2410.419434 1360.900391 2402.996094 1353.745239 2402.996094 1340.515625 L 2402.996094 1300.960938 L 2392.195313 1300.960938 L 2392.195313 1289.349609 L 2402.996094 1289.349609 L 2402.996094 1273.150391 L 2417.035156 1273.150391 L 2417.035156 1289.349609 L 2436.070313 1289.349609 L 2436.070313 1300.960938 L 2417.035156 1300.960938 L 2417.035156 1340.515625 C 2417.035156 1346.320313 2419.869385 1349.289063 2425.404297 1349.289063 L 2435.935547 1349.289063 L 2435.935547 1360.900391 L 2424.189453 1360.900391 Z M 2446.330078 1360.900391 L 2446.330078 1289.349609 L 2460.371094 1289.349609 L 2460.371094 1360.900391 L 2446.330078 1360.900391 Z M 2550.279297 1360.900391 L 2550.279297 1289.349609 L 2562.970703 1289.349609 L 2563.375 1301.5 C 2567.155029 1291.915283 2575.390869 1287.730469 2585.246094 1287.730469 C 2601.311035 1287.730469 2609.410156 1299.340698 2609.410156 1314.865234 L 2609.410156 1360.900391 L 2595.371094 1360.900391 L 2595.371094 1319.050781 C 2595.371094 1306.496338 2591.5896 1299.609375 2581.599609 1299.609375 C 2570.93457 1299.609375 2564.320313 1306.496338 2564.320313 1319.050781 L 2564.320313 1360.900391 L 2550.279297 1360.900391 Z M 2797.330078 1360.900391 L 2797.330078 1289.349609 L 2810.019531 1289.349609 L 2810.425781 1301.095703 C 2813.935791 1292.590942 2821.225586 1287.730469 2830.810547 1287.730469 C 2841.070557 1287.730469 2848.494629 1293.130371 2851.599609 1302.580078 C 2854.8396 1292.860352 2862.264404 1287.730469 2873.064453 1287.730469 C 2887.644531 1287.730469 2896.285156 1297.450684 2896.285156 1314.865234 L 2896.285156 1360.900391 L 2882.246094 1360.900391 L 2882.246094 1319.050781 C 2882.246094 1306.496338 2877.654785 1299.609375 2869.554688 1299.609375 C 2859.294678 1299.609375 2853.490234 1306.631226 2853.490234 1319.050781 L 2853.490234 1360.900391 L 2840.125 1360.900391 L 2840.125 1319.050781 C 2840.125 1306.766235 2835.5354 1299.609375 2827.435547 1299.609375 C 2817.310547 1299.609375 2811.371094 1306.766235 2811.371094 1319.050781 L 2811.371094 1360.900391 L 2797.330078 1360.900391 Z M 2909.109375 1360.900391 L 2909.109375 1289.349609 L 2923.150391 1289.349609 L 2923.150391 1360.900391 L 2909.109375 1360.900391 Z M 2937.595703 1360.900391 L 2937.595703 1289.349609 L 2950.285156 1289.349609 L 2950.689453 1301.5 C 2954.469482 1291.915283 2962.705566 1287.730469 2972.560547 1287.730469 C 2988.625488 1287.730469 2996.724609 1299.340698 2996.724609 1314.865234 L 2996.724609 1360.900391 L 2982.685547 1360.900391 L 2982.685547 1319.050781 C 2982.685547 1306.496338 2978.904053 1299.609375 2968.914063 1299.609375 C 2958.249023 1299.609375 2951.634766 1306.496338 2951.634766 1319.050781 L 2951.634766 1360.900391 L 2937.595703 1360.900391 Z M 3331.525391 1360.900391 L 3331.525391 1289.349609 L 3344.214844 1289.349609 L 3344.621094 1301.5 C 3348.400879 1291.915283 3356.635254 1287.730469 3366.490234 1287.730469 C 3382.555176 1287.730469 3390.654297 1299.340698 3390.654297 1314.865234 L 3390.654297 1360.900391 L 3376.615234 1360.900391 L 3376.615234 1319.050781 C 3376.615234 1306.496338 3372.835693 1299.609375 3362.845703 1299.609375 C 3352.180664 1299.609375 3345.564453 1306.496338 3345.564453 1319.050781 L 3345.564453 1360.900391 L 3331.525391 1360.900391 Z M 1050.294922 1351.449219 C 1061.229858 1351.449219 1069.599609 1343.755249 1069.599609 1328.095703 L 1069.599609 1327.419922 L 1054.210938 1330.119141 C 1044.220947 1331.874146 1036.390625 1332.685547 1036.390625 1341.865234 C 1036.390625 1347.130127 1040.844849 1351.449219 1050.294922 1351.449219 Z M 2351.830078 1351.449219 C 2362.764893 1351.449219 2371.134766 1343.755249 2371.134766 1328.095703 L 2371.134766 1327.419922 L 2355.746094 1330.119141 C 2345.755859 1331.874146 2337.925781 1332.685547 2337.925781 1341.865234 C 2337.925781 1347.130127 2342.379883 1351.449219 2351.830078 1351.449219 Z M 213.025391 1350.234375 C 226.659897 1350.234375 232.195313 1337.949585 232.195313 1325.125 C 232.195313 1311.760498 226.794907 1299.609375 213.025391 1299.609375 C 199.255905 1299.609375 193.720703 1311.895508 193.720703 1325.125 C 193.720703 1337.949585 199.255905 1350.234375 213.025391 1350.234375 Z M 935.949219 1350.234375 C 948.234253 1350.234375 955.255859 1340.784546 955.255859 1325.125 C 955.255859 1309.465454 948.234253 1300.015625 935.949219 1300.015625 C 923.664307 1300.015625 916.644531 1309.465454 916.644531 1325.125 C 916.644531 1340.784546 923.664307 1350.234375 935.949219 1350.234375 Z M 1264.134766 1350.234375 C 1276.4198 1350.234375 1283.439453 1340.784546 1283.439453 1325.125 C 1283.439453 1309.465454 1276.4198 1300.015625 1264.134766 1300.015625 C 1251.849731 1300.015625 1244.830078 1309.465454 1244.830078 1325.125 C 1244.830078 1340.784546 1251.849731 1350.234375 1264.134766 1350.234375 Z M 1757.154297 1350.234375 C 1769.439209 1350.234375 1776.460938 1340.784546 1776.460938 1325.125 C 1776.460938 1309.465454 1769.439209 1300.015625 1757.154297 1300.015625 C 1744.869263 1300.015625 1737.849609 1309.465454 1737.849609 1325.125 C 1737.849609 1340.784546 1744.869263 1350.234375 1757.154297 1350.234375 Z M 2505.730469 1350.234375 C 2518.015381 1350.234375 2525.035156 1340.784546 2525.035156 1325.125 C 2525.035156 1309.465454 2518.015381 1300.015625 2505.730469 1300.015625 C 2493.445557 1300.015625 2486.425781 1309.465454 2486.425781 1325.125 C 2486.425781 1340.784546 2493.445557 1350.234375 2505.730469 1350.234375 Z M 2752.779297 1350.234375 C 2765.064209 1350.234375 2772.085938 1340.784546 2772.085938 1325.125 C 2772.085938 1309.465454 2765.064209 1300.015625 2752.779297 1300.015625 C 2740.494385 1300.015625 2733.474609 1309.465454 2733.474609 1325.125 C 2733.474609 1340.784546 2740.494385 1350.234375 2752.779297 1350.234375 Z M 3212.455078 1350.234375 C 3224.73999 1350.234375 3231.759766 1340.784546 3231.759766 1325.125 C 3231.759766 1309.465454 3224.73999 1300.015625 3212.455078 1300.015625 C 3200.169922 1300.015625 3193.150391 1309.465454 3193.150391 1325.125 C 3193.150391 1340.784546 3200.169922 1350.234375 3212.455078 1350.234375 Z M 3286.974609 1350.234375 C 3299.259521 1350.234375 3306.279297 1340.784546 3306.279297 1325.125 C 3306.279297 1309.465454 3299.259521 1300.015625 3286.974609 1300.015625 C 3274.689453 1300.015625 3267.669922 1309.465454 3267.669922 1325.125 C 3267.669922 1340.784546 3274.689453 1350.234375 3286.974609 1350.234375 Z M 530.005859 1349.964844 C 535.810852 1349.964844 541.075623 1348.210327 543.640625 1345.105469 L 522.175781 1317.970703 C 516.640808 1321.615601 509.484375 1327.015503 509.484375 1335.115234 C 509.484375 1344.160034 517.315857 1349.964844 530.005859 1349.964844 Z M 3038.980469 1345.375 C 3050.455566 1345.375 3057.611084 1335.924927 3057.746094 1322.695313 C 3057.880859 1309.46582 3050.725586 1300.015625 3038.980469 1300.015625 C 3027.235596 1300.015625 3020.214844 1309.46582 3020.214844 1322.695313 C 3020.214844 1335.924927 3027.370605 1345.375 3038.980469 1345.375 Z M 120.550781 1318.375 L 156.865234 1318.375 C 154.97525 1304.605469 147.548691 1299.880859 139.449219 1299.880859 C 128.919724 1299.880859 122.305786 1306.765503 120.550781 1318.375 Z M 409.314453 1318.375 L 445.630859 1318.375 C 443.740845 1304.605469 436.314819 1299.880859 428.214844 1299.880859 C 417.684814 1299.880859 411.069458 1306.765503 409.314453 1318.375 Z M 621.265625 1318.375 L 657.580078 1318.375 C 655.690063 1304.605469 648.264099 1299.880859 640.164063 1299.880859 C 629.634094 1299.880859 623.02063 1306.765503 621.265625 1318.375 Z M 728.724609 1318.375 L 765.039063 1318.375 C 763.149048 1304.605469 755.724976 1299.880859 747.625 1299.880859 C 737.094971 1299.880859 730.479614 1306.765503 728.724609 1318.375 Z M 1985.304688 1318.375 L 2021.621094 1318.375 C 2019.730957 1304.605469 2012.304932 1299.880859 2004.205078 1299.880859 C 1993.675049 1299.880859 1987.059814 1306.765503 1985.304688 1318.375 Z M 525.414063 1301.095703 C 533.514099 1297.315674 538.509766 1291.64563 538.509766 1286.380859 C 538.509766 1280.576172 535.269409 1276.38916 529.734375 1276.119141 C 523.794373 1275.714111 519.070068 1280.576172 519.205078 1286.380859 C 519.205078 1290.295654 520.959106 1295.020996 525.414063 1301.095703 Z M 325.345703 1278.685547 L 325.345703 1265.050781 L 339.925781 1265.050781 L 339.925781 1278.685547 L 325.345703 1278.685547 Z M 1532.109375 1278.685547 L 1532.109375 1265.050781 L 1546.689453 1265.050781 L 1546.689453 1278.685547 L 1532.109375 1278.685547 Z M 1697.619141 1278.685547 L 1697.619141 1265.050781 L 1712.199219 1265.050781 L 1712.199219 1278.685547 L 1697.619141 1278.685547 Z M 2144.470703 1278.685547 L 2144.470703 1265.050781 L 2159.050781 1265.050781 L 2159.050781 1278.685547 L 2144.470703 1278.685547 Z M 2225.740234 1278.685547 L 2225.740234 1265.050781 L 2240.320313 1265.050781 L 2240.320313 1278.685547 L 2225.740234 1278.685547 Z M 2446.195313 1278.685547 L 2446.195313 1265.050781 L 2460.775391 1265.050781 L 2460.775391 1278.685547 L 2446.195313 1278.685547 Z M 2908.974609 1278.685547 L 2908.974609 1265.050781 L 2923.554688 1265.050781 L 2923.554688 1278.685547 L 2908.974609 1278.685547 Z M 891.265625 1199.869141 C 875.605591 1199.869141 863.859863 1191.634766 860.214844 1179.214844 L 874.794922 1178.269531 C 877.494873 1184.344482 883.165405 1187.990234 891.400391 1187.990234 C 903.010376 1187.990234 910.029297 1182.860718 910.029297 1173.005859 L 910.029297 1162.474609 C 905.844238 1170.304565 897.880371 1174.355469 890.320313 1174.355469 C 870.745361 1174.355469 858.324219 1160.0448 858.324219 1139.794922 C 858.324219 1119.410034 871.150391 1104.830078 890.320313 1104.830078 C 899.635376 1104.830078 907.330322 1109.824585 910.570313 1117.519531 L 910.570313 1106.449219 L 924.070313 1106.449219 L 924.070313 1170.574219 C 924.070313 1189.474121 910.705566 1199.869141 891.265625 1199.869141 Z M 1690.599609 1199.869141 C 1674.939575 1199.869141 1663.195679 1191.634521 1659.550781 1179.214844 L 1674.130859 1178.269531 C 1676.830811 1184.344482 1682.49939 1187.990234 1690.734375 1187.990234 C 1702.34436 1187.990234 1709.365234 1182.860596 1709.365234 1173.005859 L 1709.365234 1162.474609 C 1705.180298 1170.304321 1697.214233 1174.355469 1689.654297 1174.355469 C 1670.079224 1174.355469 1657.660156 1160.044678 1657.660156 1139.794922 C 1657.660156 1119.4104 1670.484253 1104.830078 1689.654297 1104.830078 C 1698.969238 1104.830078 1706.664307 1109.824585 1709.904297 1117.519531 L 1709.904297 1106.449219 L 1723.404297 1106.449219 L 1723.404297 1170.574219 C 1723.404297 1189.473999 1710.039673 1199.869141 1690.599609 1199.869141 Z M 1168.554688 1199.060547 L 1174.089844 1178 L 1168.015625 1178 L 1168.015625 1161.664063 L 1184.619141 1161.664063 L 1184.619141 1178 L 1176.519531 1199.060547 L 1168.554688 1199.060547 Z M 2305.121094 1198.25 L 2305.121094 1106.449219 L 2318.214844 1106.449219 L 2318.621094 1116.845703 C 2322.535889 1109.150635 2329.960449 1104.830078 2340.355469 1104.830078 C 2361.415527 1104.830078 2371.134766 1122.245361 2371.134766 1142.224609 C 2371.134766 1162.204224 2361.415527 1179.619141 2340.355469 1179.619141 C 2330.500488 1179.619141 2323.210205 1175.704346 2319.160156 1168.279297 L 2319.160156 1198.25 L 2305.121094 1198.25 Z M 630.849609 1179.619141 C 616.539612 1179.619141 605.064453 1172.059326 605.064453 1159.234375 C 605.064453 1144.789429 615.729431 1140.739746 632.064453 1137.634766 L 652.585938 1133.585938 C 652.450928 1122.110962 647.184265 1116.574219 636.654297 1116.574219 C 628.284241 1116.574219 622.749634 1120.759644 620.724609 1128.724609 L 606.279297 1127.779297 C 609.114258 1113.469238 620.454285 1104.830078 636.654297 1104.830078 C 656.094238 1104.830078 666.625 1115.630371 666.625 1135.070313 L 666.625 1162.070313 C 666.625 1165.445313 668.110291 1166.660156 670.945313 1166.660156 L 673.914063 1166.660156 L 673.914063 1178 L 669.189453 1178 C 662.709473 1178.13501 654.204102 1176.784424 653.664063 1167.064453 C 650.559082 1173.814453 642.594604 1179.619141 630.849609 1179.619141 Z M 747.085938 1179.619141 C 736.285889 1179.619141 728.725525 1175.299805 724.810547 1168.009766 L 724.404297 1178 L 711.310547 1178 L 711.310547 1082.150391 L 725.349609 1082.150391 L 725.349609 1115.765625 C 729.534607 1108.610596 736.825928 1104.830078 747.085938 1104.830078 C 767.605896 1104.830078 777.324219 1122.244629 777.324219 1142.224609 C 777.324219 1162.20459 767.605896 1179.619141 747.085938 1179.619141 Z M 1089.310547 1179.619141 C 1068.790527 1179.619141 1055.425781 1165.039551 1055.425781 1142.224609 C 1055.425781 1119.409912 1068.790527 1104.830078 1089.310547 1104.830078 C 1106.050537 1104.830078 1120.629517 1115.899292 1121.439453 1141.414063 L 1121.574219 1146.275391 L 1070.140625 1146.275391 C 1071.220581 1159.640259 1077.970459 1167.470703 1089.310547 1167.470703 C 1096.465454 1167.470703 1102.809326 1163.420166 1105.779297 1156.535156 L 1120.494141 1157.615234 C 1116.309204 1171.115112 1103.755493 1179.619141 1089.310547 1179.619141 Z M 1259.410156 1179.619141 C 1248.610107 1179.619141 1241.049805 1175.299805 1237.134766 1168.009766 L 1236.730469 1178 L 1223.634766 1178 L 1223.634766 1082.150391 L 1237.675781 1082.150391 L 1237.675781 1115.765625 C 1241.860718 1108.610596 1249.150146 1104.830078 1259.410156 1104.830078 C 1279.930176 1104.830078 1289.650391 1122.244873 1289.650391 1142.224609 C 1289.650391 1162.204468 1279.930176 1179.619141 1259.410156 1179.619141 Z M 1330.285156 1179.619141 C 1309.765137 1179.619141 1296.400391 1165.039429 1296.400391 1142.224609 C 1296.400391 1119.409912 1309.765137 1104.830078 1330.285156 1104.830078 C 1350.805176 1104.830078 1364.169922 1119.409912 1364.169922 1142.224609 C 1364.169922 1165.039429 1350.805176 1179.619141 1330.285156 1179.619141 Z M 1404.804688 1179.619141 C 1384.284668 1179.619141 1370.919922 1165.039429 1370.919922 1142.224609 C 1370.919922 1119.410034 1384.284668 1104.830078 1404.804688 1104.830078 C 1425.324585 1104.830078 1438.689453 1119.410034 1438.689453 1142.224609 C 1438.689453 1165.039429 1425.324585 1179.619141 1404.804688 1179.619141 Z M 1996.644531 1179.619141 C 1982.334473 1179.619141 1970.859375 1172.059082 1970.859375 1159.234375 C 1970.859375 1144.789795 1981.52417 1140.739746 1997.859375 1137.634766 L 2018.378906 1133.585938 C 2018.244141 1122.110962 2012.979248 1116.574219 2002.449219 1116.574219 C 1994.079346 1116.574219 1988.544434 1120.759644 1986.519531 1128.724609 L 1972.074219 1127.779297 C 1974.90918 1113.469238 1986.249268 1104.830078 2002.449219 1104.830078 C 2021.88916 1104.830078 2032.419922 1115.630981 2032.419922 1135.070313 L 2032.419922 1162.070313 C 2032.419922 1165.445313 2033.905273 1166.660156 2036.740234 1166.660156 L 2039.710938 1166.660156 L 2039.710938 1178 L 2034.984375 1178 C 2028.50415 1178.13501 2020.000977 1176.78418 2019.460938 1167.064453 C 2016.355957 1173.814453 2008.389404 1179.619141 1996.644531 1179.619141 Z M 2237.080078 1179.619141 C 2218.98999 1179.619141 2205.894531 1170.304688 2204.814453 1155.455078 L 2219.259766 1154.509766 C 2220.609863 1162.609375 2226.955322 1167.605469 2236.945313 1167.605469 C 2243.290283 1167.605469 2251.525391 1165.445068 2251.525391 1158.830078 C 2251.390381 1151.000488 2242.345703 1150.055786 2234.515625 1148.300781 C 2219.665771 1145.060791 2206.570313 1141.144531 2206.570313 1127.375 C 2206.570313 1113.469971 2217.775879 1104.830078 2235.460938 1104.830078 C 2250.716064 1104.830078 2262.595703 1113.875732 2264.890625 1128.050781 L 2250.445313 1128.859375 C 2248.960205 1121.299316 2241.670898 1116.710938 2234.246094 1116.710938 C 2226.956055 1116.710938 2221.015381 1120.490967 2221.150391 1126.835938 C 2221.150391 1133.315918 2229.655273 1136.015259 2236.945313 1137.365234 C 2254.495361 1140.605225 2266.105469 1145.32959 2266.105469 1159.369141 C 2266.105469 1173.408691 2251.794922 1179.619141 2237.080078 1179.619141 Z M 2411.769531 1179.619141 C 2391.249512 1179.619141 2377.884766 1165.039185 2377.884766 1142.224609 C 2377.884766 1119.4104 2391.249512 1104.830078 2411.769531 1104.830078 C 2432.289551 1104.830078 2445.654297 1119.4104 2445.654297 1142.224609 C 2445.654297 1165.039185 2432.289551 1179.619141 2411.769531 1179.619141 Z M 2484.669922 1179.619141 C 2466.580078 1179.619141 2453.484375 1170.304688 2452.404297 1155.455078 L 2466.849609 1154.509766 C 2468.199463 1162.609253 2474.545166 1167.605469 2484.535156 1167.605469 C 2490.880127 1167.605469 2499.115234 1165.445068 2499.115234 1158.830078 C 2498.980225 1151.000488 2489.935547 1150.055786 2482.105469 1148.300781 C 2467.255371 1145.060791 2454.160156 1141.144531 2454.160156 1127.375 C 2454.160156 1113.469971 2465.365723 1104.830078 2483.050781 1104.830078 C 2498.305664 1104.830078 2510.185547 1113.875732 2512.480469 1128.050781 L 2498.035156 1128.859375 C 2496.550293 1121.299316 2489.260986 1116.710938 2481.835938 1116.710938 C 2474.545898 1116.710938 2468.605225 1120.490967 2468.740234 1126.835938 C 2468.740234 1133.315918 2477.245361 1136.015259 2484.535156 1137.365234 C 2502.085205 1140.605225 2513.695313 1145.32959 2513.695313 1159.369141 C 2513.695313 1173.408691 2499.38501 1179.619141 2484.669922 1179.619141 Z M 2552.710938 1179.619141 C 2534.621094 1179.619141 2521.525146 1170.304688 2520.445313 1155.455078 L 2534.890625 1154.509766 C 2536.240723 1162.609253 2542.584229 1167.605469 2552.574219 1167.605469 C 2558.919189 1167.605469 2567.154297 1165.445068 2567.154297 1158.830078 C 2567.019287 1151.000488 2557.974609 1150.055786 2550.144531 1148.300781 C 2535.294434 1145.060791 2522.199219 1141.144531 2522.199219 1127.375 C 2522.199219 1113.469971 2533.404785 1104.830078 2551.089844 1104.830078 C 2566.344727 1104.830078 2578.224609 1113.875732 2580.519531 1128.050781 L 2566.074219 1128.859375 C 2564.589355 1121.299316 2557.300049 1116.710938 2549.875 1116.710938 C 2542.584961 1116.710938 2536.644287 1120.490967 2536.779297 1126.835938 C 2536.779297 1133.315918 2545.28418 1136.015259 2552.574219 1137.365234 C 2570.124268 1140.605225 2581.734375 1145.32959 2581.734375 1159.369141 C 2581.734375 1173.408691 2567.426025 1179.619141 2552.710938 1179.619141 Z M 2654.634766 1179.619141 C 2643.834717 1179.619141 2636.27417 1175.299805 2632.359375 1168.009766 L 2631.955078 1178 L 2618.859375 1178 L 2618.859375 1082.150391 L 2632.900391 1082.150391 L 2632.900391 1115.765625 C 2637.085449 1108.610596 2644.374756 1104.830078 2654.634766 1104.830078 C 2675.154785 1104.830078 2684.875 1122.245605 2684.875 1142.224609 C 2684.875 1162.204102 2675.154785 1179.619141 2654.634766 1179.619141 Z M 2760.070313 1179.619141 C 2739.550293 1179.619141 2726.185547 1165.039063 2726.185547 1142.224609 C 2726.185547 1119.410645 2739.550293 1104.830078 2760.070313 1104.830078 C 2776.810303 1104.830078 2791.38916 1115.900024 2792.199219 1141.414063 L 2792.335938 1146.275391 L 2740.900391 1146.275391 C 2741.980469 1159.639893 2748.730225 1167.470703 2760.070313 1167.470703 C 2767.225342 1167.470703 2773.569092 1163.420166 2776.539063 1156.535156 L 2791.253906 1157.615234 C 2787.069092 1171.114746 2774.515137 1179.619141 2760.070313 1179.619141 Z M 787.990234 1178 L 787.990234 1106.449219 L 800.814453 1106.449219 L 801.220703 1119.949219 C 803.515747 1110.769165 808.915527 1106.449219 818.230469 1106.449219 L 825.115234 1106.449219 L 825.115234 1118.060547 L 818.095703 1118.060547 C 807.025757 1118.060547 802.029297 1124.135376 802.029297 1136.150391 L 802.029297 1178 L 787.990234 1178 Z M 832.810547 1178 L 832.810547 1106.449219 L 846.849609 1106.449219 L 846.849609 1178 L 832.810547 1178 Z M 940.404297 1178 L 940.404297 1082.150391 L 954.445313 1082.150391 L 954.445313 1116.035156 C 958.630371 1108.205078 966.730835 1104.830078 975.505859 1104.830078 C 991.570801 1104.830078 999.535156 1116.709839 999.535156 1131.964844 L 999.535156 1178 L 985.494141 1178 L 985.494141 1136.824219 C 985.494141 1124.269165 981.7146 1117.384766 971.724609 1117.384766 C 961.059692 1117.384766 954.445313 1124.269165 954.445313 1136.824219 L 954.445313 1178 L 940.404297 1178 Z M 1040.574219 1178 C 1026.804321 1178 1019.380859 1170.845093 1019.380859 1157.615234 L 1019.380859 1118.060547 L 1008.580078 1118.060547 L 1008.580078 1106.449219 L 1019.380859 1106.449219 L 1019.380859 1090.25 L 1033.419922 1090.25 L 1033.419922 1106.449219 L 1052.455078 1106.449219 L 1052.455078 1118.060547 L 1033.419922 1118.060547 L 1033.419922 1157.615234 C 1033.419922 1163.420288 1036.254028 1166.390625 1041.789063 1166.390625 L 1052.320313 1166.390625 L 1052.320313 1178 L 1040.574219 1178 Z M 1132.240234 1178 L 1132.240234 1106.449219 L 1145.064453 1106.449219 L 1145.470703 1119.949219 C 1147.765747 1110.769165 1153.165527 1106.449219 1162.480469 1106.449219 L 1169.365234 1106.449219 L 1169.365234 1118.060547 L 1162.345703 1118.060547 C 1151.275757 1118.060547 1146.279297 1124.135376 1146.279297 1136.150391 L 1146.279297 1178 L 1132.240234 1178 Z M 1449.355469 1178 L 1449.355469 1106.449219 L 1462.044922 1106.449219 L 1462.449219 1118.195313 C 1465.959229 1109.690308 1473.250977 1104.830078 1482.835938 1104.830078 C 1493.095947 1104.830078 1500.52002 1110.229736 1503.625 1119.679688 C 1506.86499 1109.959717 1514.289917 1104.830078 1525.089844 1104.830078 C 1539.669922 1104.830078 1548.310547 1114.550293 1548.310547 1131.964844 L 1548.310547 1178 L 1534.269531 1178 L 1534.269531 1136.150391 C 1534.269531 1123.595459 1529.680176 1116.710938 1521.580078 1116.710938 C 1511.320068 1116.710938 1505.515625 1123.730469 1505.515625 1136.150391 L 1505.515625 1178 L 1492.150391 1178 L 1492.150391 1136.150391 C 1492.150391 1123.865356 1487.561035 1116.710938 1479.460938 1116.710938 C 1469.335938 1116.710938 1463.394531 1123.865356 1463.394531 1136.150391 L 1463.394531 1178 L 1449.355469 1178 Z M 1561.134766 1178 L 1561.134766 1106.449219 L 1575.175781 1106.449219 L 1575.175781 1178 L 1561.134766 1178 Z M 1589.619141 1178 L 1589.619141 1106.449219 L 1602.310547 1106.449219 L 1602.714844 1118.599609 C 1606.494873 1109.014648 1614.730957 1104.830078 1624.585938 1104.830078 C 1640.651001 1104.830078 1648.75 1116.440308 1648.75 1131.964844 L 1648.75 1178 L 1634.710938 1178 L 1634.710938 1136.150391 C 1634.710938 1123.595459 1630.929565 1116.710938 1620.939453 1116.710938 C 1610.274536 1116.710938 1603.660156 1123.595459 1603.660156 1136.150391 L 1603.660156 1178 L 1589.619141 1178 Z M 1768.224609 1178 L 1768.224609 1082.150391 L 1801.839844 1082.150391 C 1825.464844 1082.150391 1837.210938 1090.789673 1837.210938 1108.744141 C 1837.210938 1119.814209 1830.595703 1126.970093 1819.390625 1128.455078 C 1833.160645 1129.940063 1841.259766 1138.175537 1841.259766 1150.865234 C 1841.259766 1168.415039 1829.245361 1178 1807.240234 1178 L 1768.224609 1178 Z M 1854.625 1178 L 1854.625 1106.449219 L 1867.449219 1106.449219 L 1867.855469 1119.949219 C 1870.150391 1110.769165 1875.550293 1106.449219 1884.865234 1106.449219 L 1891.75 1106.449219 L 1891.75 1118.060547 L 1884.730469 1118.060547 C 1873.6604 1118.060547 1868.664063 1124.135376 1868.664063 1136.150391 L 1868.664063 1178 L 1854.625 1178 Z M 1899.445313 1178 L 1899.445313 1106.449219 L 1913.484375 1106.449219 L 1913.484375 1178 L 1899.445313 1178 Z M 1953.445313 1178 C 1939.675293 1178 1932.25 1170.844971 1932.25 1157.615234 L 1932.25 1118.060547 L 1921.449219 1118.060547 L 1921.449219 1106.449219 L 1932.25 1106.449219 L 1932.25 1090.25 L 1946.289063 1090.25 L 1946.289063 1106.449219 L 1965.324219 1106.449219 L 1965.324219 1118.060547 L 1946.289063 1118.060547 L 1946.289063 1157.615234 C 1946.289063 1163.420288 1949.125244 1166.390625 1954.660156 1166.390625 L 1965.189453 1166.390625 L 1965.189453 1178 L 1953.445313 1178 Z M 2048.621094 1178 L 2048.621094 1106.449219 L 2062.660156 1106.449219 L 2062.660156 1178 L 2048.621094 1178 Z M 2077.105469 1178 L 2077.105469 1106.449219 L 2089.794922 1106.449219 L 2090.199219 1118.599609 C 2093.979248 1109.014648 2102.215332 1104.830078 2112.070313 1104.830078 C 2128.135254 1104.830078 2136.234375 1116.440552 2136.234375 1131.964844 L 2136.234375 1178 L 2122.195313 1178 L 2122.195313 1136.150391 C 2122.195313 1123.595459 2118.415771 1116.710938 2108.425781 1116.710938 C 2097.760742 1116.710938 2091.144531 1123.595459 2091.144531 1136.150391 L 2091.144531 1178 L 2077.105469 1178 Z M 2179.300781 1178 L 2179.300781 1106.449219 L 2193.339844 1106.449219 L 2193.339844 1178 L 2179.300781 1178 Z M 2592.400391 1178 L 2592.400391 1106.449219 L 2606.439453 1106.449219 L 2606.439453 1178 L 2592.400391 1178 Z M 2712.685547 1178 C 2703.235596 1178 2697.025391 1171.924316 2697.025391 1162.339844 L 2697.025391 1082.150391 L 2711.064453 1082.150391 L 2711.064453 1161.664063 C 2711.064453 1164.904053 2712.549316 1166.390625 2715.654297 1166.390625 L 2721.595703 1166.390625 L 2721.595703 1178 L 2712.685547 1178 Z M 633.550781 1168.550781 C 644.485779 1168.550781 652.855469 1160.855347 652.855469 1145.195313 L 652.855469 1144.519531 L 637.464844 1147.220703 C 627.474792 1148.975708 619.644531 1149.784912 619.644531 1158.964844 C 619.644531 1164.229858 624.100769 1168.550781 633.550781 1168.550781 Z M 1999.345703 1168.550781 C 2010.280762 1168.550781 2018.650391 1160.85498 2018.650391 1145.195313 L 2018.650391 1144.519531 L 2003.259766 1147.220703 C 1993.269775 1148.975708 1985.439453 1149.785156 1985.439453 1158.964844 C 1985.439453 1164.229858 1989.895752 1168.550781 1999.345703 1168.550781 Z M 743.574219 1167.335938 C 757.209229 1167.335938 762.744141 1155.049561 762.744141 1142.224609 C 762.744141 1128.859619 757.344177 1116.710938 743.574219 1116.710938 C 729.804199 1116.710938 724.269531 1128.994629 724.269531 1142.224609 C 724.269531 1155.049561 729.804199 1167.335938 743.574219 1167.335938 Z M 1255.900391 1167.335938 C 1269.5354 1167.335938 1275.070313 1155.049438 1275.070313 1142.224609 C 1275.070313 1128.859741 1269.67041 1116.710938 1255.900391 1116.710938 C 1242.130371 1116.710938 1236.595703 1128.994751 1236.595703 1142.224609 C 1236.595703 1155.049438 1242.130371 1167.335938 1255.900391 1167.335938 Z M 1330.285156 1167.335938 C 1342.570068 1167.335938 1349.589844 1157.884399 1349.589844 1142.224609 C 1349.589844 1126.564941 1342.570068 1117.115234 1330.285156 1117.115234 C 1318.000122 1117.115234 1310.980469 1126.564941 1310.980469 1142.224609 C 1310.980469 1157.884399 1318.000122 1167.335938 1330.285156 1167.335938 Z M 1404.804688 1167.335938 C 1417.0896 1167.335938 1424.109375 1157.884399 1424.109375 1142.224609 C 1424.109375 1126.564941 1417.0896 1117.115234 1404.804688 1117.115234 C 1392.519653 1117.115234 1385.5 1126.564941 1385.5 1142.224609 C 1385.5 1157.884399 1392.519653 1167.335938 1404.804688 1167.335938 Z M 2337.115234 1167.335938 C 2350.750244 1167.335938 2356.285156 1155.184204 2356.285156 1142.224609 C 2356.285156 1129.400024 2350.750244 1117.115234 2337.115234 1117.115234 C 2323.480225 1117.115234 2317.810547 1129.400024 2317.810547 1142.224609 C 2317.810547 1155.049194 2323.615234 1167.335938 2337.115234 1167.335938 Z M 2411.769531 1167.335938 C 2424.054443 1167.335938 2431.074219 1157.884155 2431.074219 1142.224609 C 2431.074219 1126.56543 2424.054443 1117.115234 2411.769531 1117.115234 C 2399.484619 1117.115234 2392.464844 1126.56543 2392.464844 1142.224609 C 2392.464844 1157.884155 2399.484619 1167.335938 2411.769531 1167.335938 Z M 2651.125 1167.335938 C 2664.76001 1167.335938 2670.294922 1155.049072 2670.294922 1142.224609 C 2670.294922 1128.860107 2664.89502 1116.710938 2651.125 1116.710938 C 2637.35498 1116.710938 2631.820313 1128.995117 2631.820313 1142.224609 C 2631.820313 1155.049072 2637.35498 1167.335938 2651.125 1167.335938 Z M 1782.535156 1164.904297 L 1807.375 1164.904297 C 1819.524902 1164.904297 1826.544922 1159.908936 1826.544922 1150.324219 C 1826.544922 1140.739502 1819.524902 1135.609375 1807.375 1135.609375 L 1782.535156 1135.609375 L 1782.535156 1164.904297 Z M 891.669922 1162.474609 C 903.144897 1162.474609 910.300537 1153.02478 910.435547 1139.794922 C 910.570435 1126.564941 903.414917 1117.115234 891.669922 1117.115234 C 879.924927 1117.115234 872.904297 1126.564941 872.904297 1139.794922 C 872.904297 1153.02478 880.059937 1162.474609 891.669922 1162.474609 Z M 1691.005859 1162.474609 C 1702.480835 1162.474609 1709.634521 1153.024658 1709.769531 1139.794922 C 1709.904541 1126.564941 1702.750854 1117.115234 1691.005859 1117.115234 C 1679.260864 1117.115234 1672.240234 1126.564941 1672.240234 1139.794922 C 1672.240234 1153.024658 1679.395874 1162.474609 1691.005859 1162.474609 Z M 1070.410156 1135.474609 L 1106.724609 1135.474609 C 1104.834595 1121.70459 1097.410522 1116.980469 1089.310547 1116.980469 C 1078.780518 1116.980469 1072.165161 1123.864624 1070.410156 1135.474609 Z M 2741.169922 1135.474609 L 2777.484375 1135.474609 C 2775.594238 1121.70459 2768.170166 1116.980469 2760.070313 1116.980469 C 2749.540283 1116.980469 2742.925049 1123.864624 2741.169922 1135.474609 Z M 1782.535156 1122.919922 L 1802.246094 1122.919922 C 1815.206055 1122.919922 1822.496094 1118.195435 1822.496094 1109.150391 C 1822.496094 1099.835449 1815.611084 1095.244141 1802.246094 1095.244141 L 1782.535156 1095.244141 L 1782.535156 1122.919922 Z M 832.675781 1095.785156 L 832.675781 1082.150391 L 847.255859 1082.150391 L 847.255859 1095.785156 L 832.675781 1095.785156 Z M 1561 1095.785156 L 1561 1082.150391 L 1575.580078 1082.150391 L 1575.580078 1095.785156 L 1561 1095.785156 Z M 1899.310547 1095.785156 L 1899.310547 1082.150391 L 1913.890625 1082.150391 L 1913.890625 1095.785156 L 1899.310547 1095.785156 Z M 2048.484375 1095.785156 L 2048.484375 1082.150391 L 2063.064453 1082.150391 L 2063.064453 1095.785156 L 2048.484375 1095.785156 Z M 2179.164063 1095.785156 L 2179.164063 1082.150391 L 2193.746094 1082.150391 L 2193.746094 1095.785156 L 2179.164063 1095.785156 Z M 2592.265625 1095.785156 L 2592.265625 1082.150391 L 2606.845703 1082.150391 L 2606.845703 1095.785156 L 2592.265625 1095.785156 Z"/>
    <g id="Group-copy">
        <path id="youth" fill="#ffffff" fill-rule="evenodd" stroke="none" d="M 51.755859 382.75 L 51.755859 328.460938 L 81.570313 328.460938 C 96.700241 328.460938 104.2649 324.010132 108.714844 313.330078 L 113.609375 301.314453 L 93.140625 301.314453 L 8.589844 80.150391 L 80.234375 80.150391 L 134.970703 235.455078 L 187.480469 80.150391 L 259.125 80.150391 L 167.455078 336.025391 C 155.885147 368.510315 134.079437 382.75 97.144531 382.75 L 51.755859 382.75 Z M 379.720703 321.339844 C 304.07074 321.339844 254.230469 272.38916 254.230469 198.074219 C 254.230469 123.759399 304.07074 74.810547 379.720703 74.810547 C 455.815613 74.810547 505.654297 123.759399 505.654297 198.074219 C 505.654297 272.38916 455.815613 321.339844 379.720703 321.339844 Z M 612.900391 321.339844 C 563.060486 321.339844 531.910156 287.964478 531.910156 231.894531 L 531.910156 80.150391 L 609.339844 80.150391 L 609.339844 205.640625 C 609.339844 241.240601 615.124878 261.265625 640.044922 261.265625 C 664.519897 261.265625 676.089844 241.240601 676.089844 205.640625 L 676.089844 80.150391 L 753.519531 80.150391 L 753.519531 316 L 683.654297 316 L 681.875 279.955078 C 668.969971 310.215088 643.1604 321.339844 612.900391 321.339844 Z M 899.925781 316 C 845.190735 316 816.710938 289.300781 816.710938 233.675781 L 816.710938 135.775391 L 776.660156 135.775391 L 776.660156 80.150391 L 816.710938 80.150391 L 816.710938 26.304688 L 894.140625 26.304688 L 894.140625 80.150391 L 955.550781 80.150391 L 955.550781 135.775391 L 894.140625 135.775391 L 894.140625 233.675781 C 894.140625 250.585693 903.040527 259.929688 919.060547 259.929688 L 956.439453 259.929688 L 956.439453 316 L 899.925781 316 Z M 978.244141 316 L 978.244141 0.050781 L 1055.675781 0.050781 L 1055.675781 109.519531 C 1069.470703 83.709473 1093.945435 74.810547 1121.980469 74.810547 C 1172.265381 74.810547 1201.189453 112.190796 1201.189453 164.255859 L 1201.189453 316 L 1123.759766 316 L 1123.759766 191.400391 C 1123.759766 156.245361 1117.974487 136.220703 1092.609375 136.220703 C 1067.244385 136.220703 1055.675781 156.245361 1055.675781 191.400391 L 1055.675781 316 L 978.244141 316 Z M 379.720703 264.380859 C 409.535736 264.380859 426.445313 240.349243 426.445313 198.074219 C 426.445313 155.799316 409.535736 131.769531 379.720703 131.769531 C 349.905792 131.769531 333.439453 155.799316 333.439453 198.074219 C 333.439453 240.349243 349.905792 264.380859 379.720703 264.380859 Z"/>
        <path id="party" fill="#ffffff" fill-rule="evenodd" stroke="none" d="M 1203.350098 620.909973 L 1203.350098 693 L 1283.004883 693 L 1283.004883 620.909973 Z M 945.25 457.150024 L 1029.800049 678.315002 L 1050.27002 678.315002 L 1045.375 690.330017 C 1040.925049 701.01001 1033.359985 705.460022 1018.22998 705.460022 L 988.415039 705.460022 L 988.415039 759.75 L 1033.805054 759.75 C 1070.73999 759.75 1092.545044 745.51001 1104.11499 713.025024 L 1195.784912 457.150024 L 1124.139893 457.150024 L 1071.630005 612.455017 L 1016.89502 457.150024 Z M 801.959961 403.304993 L 801.959961 457.150024 L 761.910034 457.150024 L 761.910034 512.775024 L 801.959961 512.775024 L 801.959961 610.674988 C 801.959961 666.299988 830.439941 693 885.175049 693 L 941.689941 693 L 941.689941 636.929993 L 904.310059 636.929993 C 888.290039 636.929993 879.390015 627.585022 879.390015 610.674988 L 879.390015 512.775024 L 940.800049 512.775024 L 940.800049 457.150024 L 879.390015 457.150024 L 879.390015 403.304993 Z M 596.814941 457.150024 L 596.814941 693 L 674.244995 693 L 674.244995 565.284973 C 674.244995 530.130005 689.819946 513.219971 729.425049 513.219971 L 751.22998 513.219971 L 751.22998 457.150024 L 729.869995 457.150024 C 700.5 457.150024 682.255005 473.61499 672.910034 505.210022 L 671.574951 457.150024 Z M 325.810059 531.465027 L 403.23999 535.025024 C 407.244995 510.549988 419.704956 498.534973 440.175049 498.534973 C 464.204956 498.534973 475.329956 513.664978 475.329956 546.150024 L 412.140015 559.054993 C 353.400024 570.625 322.25 588.424988 322.25 630.700012 C 322.25 672.530029 358.73999 698.340027 406.800049 698.340027 C 451.744995 698.340027 478.890015 682.765015 490.905029 657.400024 C 499.359985 702.789978 554.094971 694.335022 566.109985 693.890015 L 576.790039 693 L 576.790039 642.715027 L 568.780029 642.715027 C 560.77002 642.715027 553.650024 640.044983 553.650024 622.690002 L 553.650024 555.940002 C 553.650024 486.52002 515.824951 451.809998 440.175049 451.809998 C 374.314941 451.809998 335.155029 479.400024 325.810059 531.465027 Z M 401.459961 627.585022 C 401.459961 606.669983 418.369995 601.775024 443.290039 596.880005 L 476.665039 590.650024 L 476.665039 593.320007 C 476.665039 631.590027 458.86499 651.169983 433.055054 651.169983 C 412.584961 651.169983 401.459961 640.934998 401.459961 627.585022 Z M 58.36499 759.75 L 135.795044 759.75 L 135.795044 659.179993 C 150.035034 684.544983 173.619995 698.340027 203.880005 698.340027 C 269.295044 698.340027 304.449951 645.830017 304.449951 575.075012 C 304.449951 504.320007 269.295044 451.809998 203.880005 451.809998 C 172.285034 451.809998 148.255005 466.049988 134.905029 491.859985 L 133.569946 457.150024 L 58.36499 457.150024 Z M 131.344971 575.075012 C 131.344971 539.030029 146.920044 508.325012 178.515015 508.325012 C 209.219971 508.325012 225.23999 538.585022 225.23999 575.075012 C 225.23999 612.01001 210.109985 641.825012 178.515015 641.825012 C 147.36499 641.825012 131.344971 612.01001 131.344971 575.075012 Z"/>
    </g>
</svg>
